# 3ds Max Wavefront OBJ Exporter v0.97b - (c)2007 guruware
# File Created: 13.06.2017 17:42:11

#
# object LP_DoorBouble01_Jamb
#

v  0.1584 -0.0003 1.1898
v  0.1584 2.3378 1.1898
v  -0.1529 2.3378 1.1898
v  -0.1529 -0.0003 1.1898
v  0.1695 2.3378 1.1787
v  0.1695 -0.0002 1.0485
v  0.1695 2.3378 1.0485
v  0.1695 -0.0003 1.1787
v  -0.1640 2.3378 1.1787
v  -0.1640 -0.0002 1.0964
v  -0.1640 -0.0003 1.1787
v  -0.1640 2.3378 1.0964
v  0.1584 2.3378 1.0374
v  -0.0933 -0.0002 1.0374
v  -0.0933 2.3378 1.0374
v  0.1584 -0.0002 1.0374
v  -0.1529 -0.0003 -1.1912
v  -0.1529 2.3378 -1.1912
v  0.1584 2.3378 -1.1912
v  0.1584 -0.0003 -1.1912
v  0.1695 2.3378 -1.1801
v  0.1695 -0.0002 -1.0500
v  0.1695 -0.0003 -1.1801
v  0.1695 2.3378 -1.0500
v  -0.1640 2.3378 -1.1801
v  -0.1640 -0.0002 -1.0978
v  -0.1640 2.3378 -1.0978
v  -0.1640 -0.0003 -1.1801
v  -0.1529 2.3378 -1.0867
v  -0.0933 -0.0002 -1.0867
v  -0.0933 2.3378 -1.0867
v  -0.1529 -0.0002 -1.0867
v  -0.2166 2.4657 -1.1912
v  0.2230 2.4657 1.1898
v  0.2230 2.4657 -1.1912
v  -0.2166 2.4657 1.1898
v  -0.0933 2.3378 1.0853
v  -0.1529 2.3378 1.0853
v  -0.1529 -0.0002 1.0853
v  -0.0933 -0.0002 1.0853
v  -0.0933 2.3378 -1.0389
v  0.1584 -0.0002 -1.0389
v  0.1584 2.3378 -1.0389
v  -0.0933 -0.0002 -1.0389
v  -0.2166 2.3378 1.1898
v  0.2333 2.4546 -1.1801
v  0.2333 2.4546 1.1787
v  0.2333 2.3600 1.1787
v  0.2333 2.3600 -1.1801
v  0.2230 2.3378 -1.1912
v  -0.2278 2.4546 1.1787
v  -0.2278 2.4546 -1.1801
v  -0.2278 2.3600 -1.1801
v  -0.2278 2.3600 1.1787
v  0.2230 2.3378 1.1898
v  -0.2166 2.3378 -1.1912
v  -0.1591 0.4898 -1.0823
v  -0.1715 0.4898 -1.0751
v  -0.1715 0.4898 -1.0608
v  -0.1591 0.4898 -1.0537
v  -0.1467 0.4898 -1.0608
v  -0.1467 0.4898 -1.0751
v  -0.1591 1.8065 -1.0823
v  -0.1715 1.8065 -1.0751
v  -0.1715 1.8065 -1.0608
v  -0.1591 1.8065 -1.0537
v  -0.1467 1.8065 -1.0608
v  -0.1467 1.8065 -1.0751
v  -0.1591 0.4898 1.0540
v  -0.1715 0.4898 1.0612
v  -0.1715 0.4898 1.0754
v  -0.1591 0.4898 1.0826
v  -0.1467 0.4898 1.0754
v  -0.1467 0.4898 1.0612
v  -0.1591 1.8065 1.0540
v  -0.1715 1.8065 1.0612
v  -0.1715 1.8065 1.0754
v  -0.1591 1.8065 1.0826
v  -0.1467 1.8065 1.0754
v  -0.1467 1.8065 1.0612
v  -0.1591 0.3966 -1.0537
v  -0.1467 0.3966 -1.0608
v  -0.1467 0.3966 -1.0751
v  -0.1591 0.3966 -1.0823
v  -0.1715 0.3966 -1.0751
v  -0.1715 0.3966 -1.0608
v  -0.1498 0.3855 -1.0733
v  -0.1498 0.3855 -1.0626
v  -0.1591 0.3855 -1.0573
v  -0.1683 0.3855 -1.0626
v  -0.1683 0.3855 -1.0733
v  -0.1591 0.3855 -1.0787
v  -0.1467 1.7133 -1.0608
v  -0.1591 1.7133 -1.0537
v  -0.1467 1.7133 -1.0751
v  -0.1591 1.7133 -1.0823
v  -0.1715 1.7133 -1.0751
v  -0.1715 1.7133 -1.0608
v  -0.1498 1.7022 -1.0733
v  -0.1498 1.7022 -1.0626
v  -0.1591 1.7022 -1.0573
v  -0.1683 1.7022 -1.0626
v  -0.1683 1.7022 -1.0733
v  -0.1591 1.7022 -1.0787
v  -0.1591 0.3966 1.0826
v  -0.1467 0.3966 1.0754
v  -0.1467 0.3966 1.0612
v  -0.1591 0.3966 1.0540
v  -0.1715 0.3966 1.0612
v  -0.1715 0.3966 1.0754
v  -0.1498 0.3855 1.0630
v  -0.1498 0.3855 1.0736
v  -0.1591 0.3855 1.0790
v  -0.1683 0.3855 1.0736
v  -0.1683 0.3855 1.0630
v  -0.1591 0.3855 1.0576
v  -0.1467 1.7133 1.0754
v  -0.1591 1.7133 1.0826
v  -0.1467 1.7133 1.0612
v  -0.1591 1.7133 1.0540
v  -0.1715 1.7133 1.0612
v  -0.1715 1.7133 1.0754
v  -0.1498 1.7022 1.0630
v  -0.1498 1.7022 1.0736
v  -0.1591 1.7022 1.0790
v  -0.1683 1.7022 1.0736
v  -0.1683 1.7022 1.0630
v  -0.1591 1.7022 1.0576
# 128 vertices

vn 0.3827 0.0000 0.9239
vn 0.1857 -0.1313 0.9738
vn -0.1857 -0.1313 0.9738
vn -0.3826 0.0000 0.9239
vn 0.5491 -0.8042 0.2275
vn 0.9239 0.0000 -0.3826
vn 0.5492 -0.8041 -0.2274
vn 0.9238 0.0000 0.3828
vn -0.5491 -0.8042 0.2275
vn -0.9239 0.0000 -0.3826
vn -0.9238 0.0000 0.3828
vn -0.5491 -0.8042 -0.2275
vn 0.2276 -0.8042 -0.5491
vn -0.7071 0.0000 -0.7071
vn -0.3016 -0.9045 -0.3015
vn 0.3828 0.0000 -0.9239
vn -0.3827 0.0000 -0.9239
vn -0.1858 -0.1314 -0.9738
vn 0.1857 -0.1313 -0.9738
vn 0.3827 0.0000 -0.9239
vn 0.5491 -0.8042 -0.2275
vn 0.9239 0.0000 0.3826
vn 0.9238 0.0000 -0.3828
vn 0.5492 -0.8042 0.2274
vn -0.5492 -0.8042 -0.2274
vn -0.9239 0.0000 0.3826
vn -0.9239 0.0000 -0.3828
vn -0.2275 -0.8042 0.5491
vn -0.7071 0.0000 0.7071
vn -0.5773 -0.5774 0.5773
vn -0.3827 0.0000 0.9239
vn -0.3909 0.6508 -0.6509
vn 0.4028 0.6472 0.6472
vn 0.4027 0.6472 -0.6473
vn -0.3909 0.6508 0.6509
vn -0.5773 -0.5774 -0.5773
vn -0.2275 -0.8042 -0.5491
vn -0.3016 -0.9045 0.3015
vn 0.2275 -0.8041 0.5492
vn -0.4511 -0.6432 0.6187
vn 0.9146 0.2858 -0.2859
vn 0.9147 0.2858 0.2858
vn 0.9388 -0.1506 0.3098
vn 0.9387 -0.1507 -0.3100
vn 0.4600 -0.6394 -0.6162
vn -0.9051 0.3007 0.3008
vn -0.9051 0.3007 -0.3007
vn -0.9319 -0.1621 -0.3246
vn -0.9318 -0.1621 0.3246
vn 0.4600 -0.6395 0.6160
vn -0.4511 -0.6432 -0.6187
vn 0.0000 0.6100 -0.7924
vn -0.6862 0.6100 -0.3962
vn -0.6862 0.6100 0.3962
vn 0.0000 0.6100 0.7924
vn 0.6862 0.6100 0.3962
vn 0.6862 0.6100 -0.3962
vn -0.6863 0.6099 -0.3963
vn 0.0000 0.6099 0.7924
vn 0.6863 0.6099 -0.3963
vn -0.6863 0.6100 -0.3962
vn 0.6863 0.6100 0.3962
vn 0.6863 0.6100 -0.3962
vn -0.6863 0.6099 -0.3962
vn 0.0000 0.6099 0.7925
vn 0.6863 0.6099 -0.3962
vn 0.0000 -0.1486 0.9889
vn 0.8564 -0.1486 0.4945
vn 0.8564 -0.1486 -0.4945
vn 0.0000 -0.1486 -0.9889
vn -0.8564 -0.1486 -0.4945
vn -0.8564 -0.1486 0.4945
vn 0.5969 -0.7245 -0.3446
vn 0.5969 -0.7245 0.3447
vn 0.0000 -0.7245 0.6893
vn -0.5969 -0.7245 0.3447
vn -0.5969 -0.7245 -0.3446
vn 0.0000 -0.7245 -0.6893
vn 0.0000 -0.7245 0.6892
vn -0.5969 -0.7245 0.3446
vn 0.8564 -0.1486 0.4944
vn 0.8564 -0.1485 -0.4944
vn -0.8564 -0.1486 -0.4944
vn -0.8564 -0.1486 0.4944
vn 0.5970 -0.7245 -0.3446
vn 0.8564 -0.1486 -0.4944
vn 0.5969 -0.7245 0.3446
vn 0.0000 -0.7246 0.6892
# 88 vertex normals

vt 0.8254 0.6662 0.0000
vt 0.0027 0.6662 0.0000
vt 0.0027 0.5567 0.0000
vt 0.8254 0.5567 0.0000
vt 0.0020 0.3396 0.0000
vt 0.8247 0.3855 0.0000
vt 0.0020 0.3854 0.0000
vt 0.8247 0.3397 0.0000
vt 0.0026 0.5513 0.0000
vt 0.8251 0.5224 0.0000
vt 0.8253 0.5512 0.0000
vt 0.0025 0.5225 0.0000
vt 0.0021 0.3909 0.0000
vt 0.8248 0.4794 0.0000
vt 0.0022 0.4794 0.0000
vt 0.8247 0.3909 0.0000
vt 0.8260 0.1115 0.0000
vt 0.0031 0.1116 0.0000
vt 0.0032 0.0020 0.0000
vt 0.8260 0.0020 0.0000
vt 0.0020 0.3284 0.0000
vt 0.8249 0.2827 0.0000
vt 0.8249 0.3284 0.0000
vt 0.0021 0.2827 0.0000
vt 0.0030 0.1170 0.0000
vt 0.8256 0.1457 0.0000
vt 0.0028 0.1458 0.0000
vt 0.8258 0.1170 0.0000
vt 0.0026 0.1512 0.0000
vt 0.8254 0.1720 0.0000
vt 0.0024 0.1720 0.0000
vt 0.8255 0.1512 0.0000
vt 0.8434 0.8798 0.0000
vt 0.9980 0.0506 0.0000
vt 0.9977 0.8801 0.0000
vt 0.8436 0.0506 0.0000
vt 0.7858 0.8340 0.0000
vt 0.8027 0.8337 0.0000
vt 0.8028 0.8547 0.0000
vt 0.0023 0.4961 0.0000
vt 0.8250 0.5170 0.0000
vt 0.0024 0.5170 0.0000
vt 0.8249 0.4962 0.0000
vt 0.0022 0.1887 0.0000
vt 0.8250 0.2772 0.0000
vt 0.0021 0.2772 0.0000
vt 0.8252 0.1888 0.0000
vt 0.8661 0.0058 0.0000
vt 0.8437 0.0058 0.0000
vt 0.0065 0.6820 0.0000
vt 0.8353 0.6822 0.0000
vt 0.8357 0.7153 0.0000
vt 0.0068 0.7153 0.0000
vt 0.9749 0.9249 0.0000
vt 0.9975 0.9250 0.0000
vt 0.8348 0.9187 0.0000
vt 0.0075 0.9187 0.0000
vt 0.0065 0.8852 0.0000
vt 0.8358 0.8853 0.0000
vt 0.9753 0.0058 0.0000
vt 0.9979 0.0058 0.0000
vt 0.8434 0.9246 0.0000
vt 0.8658 0.9246 0.0000
vt 0.8401 0.7235 0.0000
vt 0.8359 0.7424 0.0000
vt 0.7898 0.7418 0.0000
vt 0.7858 0.7451 0.0000
vt 0.0529 0.7419 0.0000
vt 0.0568 0.7452 0.0000
vt 0.0024 0.7235 0.0000
vt 0.0066 0.7425 0.0000
vt 0.8066 0.8582 0.0000
vt 0.8358 0.8579 0.0000
vt 0.8406 0.8770 0.0000
vt 0.0017 0.8770 0.0000
vt 0.0358 0.8582 0.0000
vt 0.0067 0.8578 0.0000
vt 0.0028 0.7465 0.0000
vt 0.0020 0.3339 0.0000
vt 0.8249 0.3339 0.0000
vt 0.0028 0.8538 0.0000
vt 0.8397 0.8539 0.0000
vt 0.8396 0.6777 0.0000
vt 0.0020 0.6774 0.0000
vt 0.8395 0.9235 0.0000
vt 0.0028 0.9234 0.0000
vt 0.8398 0.7464 0.0000
vt 0.8254 0.6717 0.0000
vt 0.0027 0.6717 0.0000
vt 0.0397 0.8548 0.0000
vt 0.0399 0.8337 0.0000
vt 0.0569 0.8340 0.0000
vt 0.4113 0.9672 0.0000
vt 0.4047 0.9632 0.0000
vt 0.4049 0.9558 0.0000
vt 0.4114 0.9521 0.0000
vt 0.4180 0.9559 0.0000
vt 0.4179 0.9635 0.0000
vt 0.2126 0.9604 0.0000
vt 0.2060 0.9564 0.0000
vt 0.2061 0.9490 0.0000
vt 0.2127 0.9452 0.0000
vt 0.2192 0.9490 0.0000
vt 0.2192 0.9566 0.0000
vt 0.2405 0.9457 0.0000
vt 0.2471 0.9497 0.0000
vt 0.2470 0.9571 0.0000
vt 0.2404 0.9609 0.0000
vt 0.2339 0.9571 0.0000
vt 0.2339 0.9495 0.0000
vt 0.0433 0.9505 0.0000
vt 0.0499 0.9546 0.0000
vt 0.0498 0.9619 0.0000
vt 0.0433 0.9657 0.0000
vt 0.0367 0.9619 0.0000
vt 0.0367 0.9543 0.0000
vt 0.4048 0.9487 0.0000
vt 0.3552 0.9491 0.0000
vt 0.4047 0.9414 0.0000
vt 0.3551 0.9420 0.0000
vt 0.4044 0.9337 0.0000
vt 0.3545 0.9347 0.0000
vt 0.4043 0.9781 0.0000
vt 0.3546 0.9780 0.0000
vt 0.4044 0.9705 0.0000
vt 0.3551 0.9705 0.0000
vt 0.3554 0.9633 0.0000
vt 0.3554 0.9561 0.0000
vt 0.3396 0.9636 0.0000
vt 0.3389 0.9579 0.0000
vt 0.3435 0.9545 0.0000
vt 0.3490 0.9561 0.0000
vt 0.3493 0.9625 0.0000
vt 0.3448 0.9659 0.0000
vt 0.2060 0.9419 0.0000
vt 0.1558 0.9349 0.0000
vt 0.2058 0.9346 0.0000
vt 0.1564 0.9422 0.0000
vt 0.2053 0.9789 0.0000
vt 0.1556 0.9783 0.0000
vt 0.2055 0.9712 0.0000
vt 0.1561 0.9709 0.0000
vt 0.1564 0.9637 0.0000
vt 0.2058 0.9636 0.0000
vt 0.1566 0.9565 0.0000
vt 0.1566 0.9493 0.0000
vt 0.1405 0.9558 0.0000
vt 0.1405 0.9502 0.0000
vt 0.1453 0.9473 0.0000
vt 0.1504 0.9494 0.0000
vt 0.1505 0.9558 0.0000
vt 0.1455 0.9587 0.0000
vt 0.3492 0.9425 0.0000
vt 0.3491 0.9490 0.0000
vt 0.3488 0.9694 0.0000
vt 0.3480 0.9757 0.0000
vt 0.3485 0.9367 0.0000
vt 0.1498 0.9369 0.0000
vt 0.1505 0.9427 0.0000
vt 0.1501 0.9629 0.0000
vt 0.1498 0.9698 0.0000
vt 0.1490 0.9761 0.0000
vt 0.2966 0.9639 0.0000
vt 0.2967 0.9709 0.0000
vt 0.2471 0.9715 0.0000
vt 0.2470 0.9642 0.0000
vt 0.2974 0.9782 0.0000
vt 0.2474 0.9793 0.0000
vt 0.2972 0.9349 0.0000
vt 0.2967 0.9424 0.0000
vt 0.2474 0.9424 0.0000
vt 0.2475 0.9349 0.0000
vt 0.2964 0.9497 0.0000
vt 0.2964 0.9569 0.0000
vt 0.3123 0.9493 0.0000
vt 0.3129 0.9550 0.0000
vt 0.3084 0.9584 0.0000
vt 0.3028 0.9569 0.0000
vt 0.3025 0.9504 0.0000
vt 0.3070 0.9471 0.0000
vt 0.0499 0.9690 0.0000
vt 0.1001 0.9761 0.0000
vt 0.0501 0.9764 0.0000
vt 0.0995 0.9688 0.0000
vt 0.0507 0.9321 0.0000
vt 0.1003 0.9327 0.0000
vt 0.0504 0.9397 0.0000
vt 0.0998 0.9400 0.0000
vt 0.0995 0.9473 0.0000
vt 0.0501 0.9473 0.0000
vt 0.0993 0.9544 0.0000
vt 0.0993 0.9616 0.0000
vt 0.1154 0.9551 0.0000
vt 0.1155 0.9608 0.0000
vt 0.1106 0.9636 0.0000
vt 0.1055 0.9616 0.0000
vt 0.1054 0.9551 0.0000
vt 0.1104 0.9523 0.0000
vt 0.3027 0.9639 0.0000
vt 0.3026 0.9705 0.0000
vt 0.3030 0.9436 0.0000
vt 0.3038 0.9372 0.0000
vt 0.3034 0.9762 0.0000
vt 0.1061 0.9740 0.0000
vt 0.1054 0.9683 0.0000
vt 0.1058 0.9481 0.0000
vt 0.1061 0.9412 0.0000
vt 0.1069 0.9348 0.0000
# 208 texture coords

g LP_DoorBouble01_Jamb
s off
f 1/1/1 2/2/2 3/3/3 
f 3/3/3 4/4/4 1/1/1 
f 5/5/5 6/6/6 7/7/7 
f 6/6/6 5/5/5 8/8/8 
f 9/9/9 10/10/10 11/11/11 
f 10/10/10 9/9/9 12/12/12 
f 13/13/13 14/14/14 15/15/15 
f 14/14/14 13/13/13 16/16/16 
f 17/17/17 18/18/18 19/19/19 
f 19/19/19 20/20/20 17/17/17 
f 21/21/21 22/22/22 23/23/23 
f 22/22/22 21/21/21 24/24/24 
f 25/25/25 26/26/26 27/27/9 
f 26/26/26 25/25/25 28/28/27 
f 29/29/28 30/30/29 31/31/30 
f 30/30/29 29/29/28 32/32/31 
f 33/33/32 34/34/33 35/35/34 
f 34/34/33 33/33/32 36/36/35 
f 15/37/15 37/38/36 38/39/37 
f 37/40/36 39/41/17 38/42/37 
f 39/41/17 37/40/36 40/43/14 
f 41/44/38 42/45/1 43/46/39 
f 42/45/1 41/44/38 44/47/29 
f 15/15/15 40/43/14 37/40/36 
f 40/43/14 15/15/15 14/14/14 
f 41/44/38 30/30/29 44/47/29 
f 30/30/29 41/44/38 31/31/30 
f 3/48/3 36/36/35 45/49/40 
f 46/50/41 47/51/42 48/52/43 
f 46/50/41 48/52/43 49/53/44 
f 19/54/19 35/35/34 50/55/45 
f 51/56/46 52/57/47 53/58/48 
f 51/56/46 53/58/48 54/59/49 
f 2/60/2 55/61/50 34/34/33 
f 56/62/51 33/33/32 18/63/18 
f 55/64/50 5/65/5 7/66/7 
f 13/67/13 24/68/24 7/66/7 
f 24/68/24 13/67/13 43/69/39 
f 50/70/45 24/68/24 21/71/21 
f 12/72/12 9/73/9 45/74/40 
f 45/74/40 56/75/51 12/72/12 
f 12/72/12 56/75/51 27/76/9 
f 56/75/51 25/77/25 27/76/9 
f 38/42/37 39/41/17 12/12/12 
f 12/12/12 39/41/17 10/10/10 
f 27/27/9 32/32/31 29/29/28 
f 32/32/31 27/27/9 26/26/26 
f 42/45/1 24/24/24 43/46/39 
f 24/24/24 42/45/1 22/22/22 
f 7/7/7 16/16/16 13/13/13 
f 16/16/16 7/7/7 6/6/6 
f 19/78/19 50/70/45 21/71/21 
f 21/21/21 23/23/23 19/79/19 
f 19/79/19 23/23/23 20/80/20 
f 25/77/25 56/75/51 18/81/18 
f 18/18/18 28/28/27 25/25/25 
f 28/28/27 18/18/18 17/17/17 
f 3/82/3 45/74/40 9/73/9 
f 9/9/9 11/11/11 3/3/3 
f 3/3/3 11/11/11 4/4/4 
f 45/74/40 53/58/48 56/75/51 
f 53/58/48 45/74/40 54/59/49 
f 55/64/50 49/53/44 48/52/43 
f 49/53/44 55/64/50 50/70/45 
f 34/83/33 46/50/41 35/84/34 
f 46/50/41 34/83/33 47/51/42 
f 36/85/35 33/86/32 52/57/47 
f 36/85/35 52/57/47 51/56/46 
f 54/59/49 36/85/35 51/56/46 
f 45/74/40 36/85/35 54/59/49 
f 34/83/33 48/52/43 47/51/42 
f 48/52/43 34/83/33 55/64/50 
f 49/53/44 35/84/34 46/50/41 
f 50/70/45 35/84/34 49/53/44 
f 33/86/32 53/58/48 52/57/47 
f 53/58/48 33/86/32 56/75/51 
f 5/65/5 55/64/50 2/87/2 
f 2/2/2 8/88/8 5/89/5 
f 8/88/8 2/2/2 1/1/1 
f 29/90/28 31/91/30 41/92/38 
f 38/39/37 29/90/28 15/37/15 
f 15/37/15 29/90/28 41/92/38 
f 13/67/13 41/92/38 43/69/39 
f 41/92/38 13/67/13 15/37/15 
f 36/36/35 2/60/2 34/34/33 
f 2/60/2 36/36/35 3/48/3 
f 33/33/32 35/35/34 19/54/19 
f 33/33/32 19/54/19 18/63/18 
f 57/93/52 58/94/53 59/95/54 
f 59/95/54 60/96/55 61/97/56 
f 57/93/52 59/95/54 61/97/56 
f 57/93/52 61/97/56 62/98/57 
f 63/99/52 64/100/58 65/101/54 
f 65/101/54 66/102/59 67/103/56 
f 63/99/52 65/101/54 67/103/56 
f 63/99/52 67/103/56 68/104/60 
f 69/105/52 70/106/61 71/107/54 
f 71/107/54 72/108/55 73/109/62 
f 69/105/52 71/107/54 73/109/62 
f 69/105/52 73/109/62 74/110/63 
f 75/111/52 76/112/64 77/113/54 
f 77/113/54 78/114/65 79/115/56 
f 75/111/52 77/113/54 79/115/56 
f 75/111/52 79/115/56 80/116/66 
f 60/117/55 81/118/67 61/119/56 
f 61/119/56 81/118/67 82/120/68 
f 61/119/56 82/120/68 62/121/57 
f 62/121/57 82/120/68 83/122/69 
f 62/123/57 83/124/69 57/125/52 
f 57/125/52 83/124/69 84/126/70 
f 57/125/52 84/126/70 58/94/53 
f 58/94/53 84/126/70 85/127/71 
f 58/94/53 85/127/71 59/95/54 
f 59/95/54 85/127/71 86/128/72 
f 59/95/54 86/128/72 60/117/55 
f 60/117/55 86/128/72 81/118/67 
f 87/129/73 88/130/74 89/131/75 
f 89/131/75 90/132/76 91/133/77 
f 87/129/73 89/131/75 91/133/77 
f 87/129/73 91/133/77 92/134/78 
f 66/135/59 93/136/68 67/137/56 
f 93/136/68 66/135/59 94/138/67 
f 67/139/56 93/140/68 68/141/60 
f 68/141/60 93/140/68 95/142/69 
f 68/141/60 96/143/70 63/144/52 
f 96/143/70 68/141/60 95/142/69 
f 63/144/52 96/143/70 64/100/58 
f 64/100/58 96/143/70 97/145/71 
f 64/100/58 98/146/72 65/101/54 
f 98/146/72 64/100/58 97/145/71 
f 65/101/54 98/146/72 66/135/59 
f 66/135/59 98/146/72 94/138/67 
f 99/147/73 100/148/74 101/149/79 
f 101/149/79 102/150/80 103/151/77 
f 99/147/73 101/149/79 103/151/77 
f 99/147/73 103/151/77 104/152/78 
f 81/118/67 88/153/74 82/120/68 
f 88/153/74 81/118/67 89/154/75 
f 81/118/67 86/128/72 90/132/76 
f 81/118/67 90/132/76 89/154/75 
f 86/128/72 85/127/71 91/133/77 
f 86/128/72 91/133/77 90/132/76 
f 84/126/70 91/133/77 85/127/71 
f 91/133/77 84/126/70 92/155/78 
f 84/126/70 83/124/69 87/156/73 
f 84/126/70 87/156/73 92/155/78 
f 82/120/68 87/157/73 83/122/69 
f 87/157/73 82/120/68 88/153/74 
f 94/138/67 100/158/74 93/136/68 
f 100/158/74 94/138/67 101/159/79 
f 94/138/67 98/146/72 102/150/80 
f 94/138/67 102/150/80 101/159/79 
f 98/146/72 97/145/71 103/151/77 
f 98/146/72 103/151/77 102/150/80 
f 96/143/70 103/151/77 97/145/71 
f 103/151/77 96/143/70 104/160/78 
f 96/143/70 95/142/69 99/161/73 
f 96/143/70 99/161/73 104/160/78 
f 93/140/68 99/161/73 95/142/69 
f 99/161/73 93/140/68 100/162/74 
f 105/163/67 106/164/81 73/165/62 
f 73/165/62 72/166/55 105/163/67 
f 106/164/81 107/167/82 74/168/63 
f 74/168/63 73/165/62 106/164/81 
f 107/169/82 108/170/70 69/171/52 
f 69/171/52 74/172/63 107/169/82 
f 108/170/70 109/173/83 70/106/61 
f 70/106/61 69/171/52 108/170/70 
f 109/173/83 110/174/84 71/107/54 
f 71/107/54 70/106/61 109/173/83 
f 110/174/84 105/163/67 72/166/55 
f 72/166/55 71/107/54 110/174/84 
f 111/175/85 112/176/74 113/177/79 
f 113/177/79 114/178/80 115/179/77 
f 111/175/85 113/177/79 115/179/77 
f 111/175/85 115/179/77 116/180/78 
f 78/181/65 117/182/81 79/183/56 
f 117/182/81 78/181/65 118/184/67 
f 79/185/56 117/186/81 80/187/66 
f 80/187/66 117/186/81 119/188/86 
f 80/187/66 120/189/70 75/190/52 
f 120/189/70 80/187/66 119/188/86 
f 75/190/52 120/189/70 76/112/64 
f 76/112/64 120/189/70 121/191/83 
f 76/112/64 122/192/84 77/113/54 
f 122/192/84 76/112/64 121/191/83 
f 77/113/54 122/192/84 78/181/65 
f 78/181/65 122/192/84 118/184/67 
f 123/193/73 124/194/87 125/195/88 
f 125/195/88 126/196/80 127/197/77 
f 123/193/73 125/195/88 127/197/77 
f 123/193/73 127/197/77 128/198/78 
f 113/199/79 112/200/74 106/164/81 
f 106/164/81 105/163/67 113/199/79 
f 114/178/80 113/199/79 105/163/67 
f 105/163/67 110/174/84 114/178/80 
f 115/179/77 114/178/80 110/174/84 
f 110/174/84 109/173/83 115/179/77 
f 116/201/78 115/179/77 109/173/83 
f 109/173/83 108/170/70 116/201/78 
f 111/202/85 116/201/78 108/170/70 
f 108/170/70 107/169/82 111/202/85 
f 112/200/74 111/203/85 107/167/82 
f 107/167/82 106/164/81 112/200/74 
f 118/184/67 124/204/87 117/182/81 
f 124/204/87 118/184/67 125/205/88 
f 118/184/67 122/192/84 126/196/80 
f 118/184/67 126/196/80 125/205/88 
f 121/191/83 126/196/80 122/192/84 
f 126/196/80 121/191/83 127/197/77 
f 120/189/70 127/197/77 121/191/83 
f 127/197/77 120/189/70 128/206/78 
f 120/189/70 119/188/86 123/207/73 
f 120/189/70 123/207/73 128/206/78 
f 119/188/86 117/186/81 124/208/87 
f 119/188/86 124/208/87 123/207/73 
f 55/64/50 24/68/24 50/70/45 
f 24/68/24 55/64/50 7/66/7 
f 38/39/37 27/76/9 29/90/28 
f 27/76/9 38/39/37 12/72/12 
# 0 polygons - 220 triangles

