# 3ds Max Wavefront OBJ Exporter v0.97b - (c)2007 guruware
# File Created: 12.06.2017 21:37:02

#
# object LP_Doo02_DoorJamb
#

v  0.1695 2.3314 -0.5056
v  0.1695 2.3890 -0.5698
v  0.1695 2.3890 0.5845
v  0.1695 2.3314 0.5198
v  0.0137 2.3359 0.5423
v  0.0137 2.3889 0.5845
v  0.0137 2.3889 -0.5703
v  0.0137 2.3359 -0.5247
v  0.0633 2.2986 -0.4800
v  0.1139 2.2986 -0.4800
v  0.1139 2.2986 0.4942
v  0.0633 2.2986 0.4942
v  0.0335 2.4279 0.6297
v  0.1489 2.4279 0.6297
v  0.1489 2.4279 -0.6155
v  0.0335 2.4279 -0.6155
v  0.0335 -0.0028 0.6297
v  0.1489 -0.0028 0.6297
v  0.1139 0.0573 0.4942
v  0.0633 0.0573 0.4942
v  0.1695 -0.0028 0.5845
v  0.1695 0.0467 0.5198
v  0.0137 0.0168 0.5423
v  0.0137 -0.0028 0.5845
v  0.0633 0.0571 -0.4800
v  0.1139 0.0571 -0.4800
v  0.1489 -0.0028 -0.6155
v  0.0335 -0.0028 -0.6155
v  0.1695 0.0465 -0.5056
v  0.1695 -0.0028 -0.5698
v  0.0137 -0.0028 -0.5703
v  0.0137 0.0165 -0.5247
v  0.0632 2.3359 -0.5247
v  0.0632 2.3359 0.5423
v  0.0632 0.0168 0.5423
v  0.0632 0.0165 -0.5247
v  -0.0140 1.7898 -0.5745
v  0.0061 1.7898 -0.5827
v  0.0157 1.7898 -0.5543
v  -0.0057 1.7898 -0.5828
v  -0.0058 1.7898 -0.5544
v  -0.0141 1.7898 -0.5628
v  0.0061 1.8632 -0.5827
v  -0.0057 1.8632 -0.5828
v  -0.0140 1.8632 -0.5745
v  -0.0141 1.8632 -0.5628
v  -0.0058 1.8632 -0.5544
v  0.0157 1.8632 -0.5543
v  0.0329 1.7898 -0.6124
v  0.0329 1.8632 -0.6124
v  -0.0140 0.4591 -0.5745
v  0.0061 0.4591 -0.5827
v  0.0157 0.4591 -0.5543
v  -0.0057 0.4591 -0.5828
v  -0.0058 0.4591 -0.5544
v  -0.0141 0.4591 -0.5628
v  0.0061 0.5324 -0.5827
v  -0.0057 0.5324 -0.5828
v  -0.0140 0.5324 -0.5745
v  -0.0141 0.5324 -0.5628
v  -0.0058 0.5324 -0.5544
v  0.0157 0.5324 -0.5543
v  0.0329 0.4591 -0.6124
v  0.0329 0.5324 -0.6124
# 64 vertices

vn 1.0000 0.0000 -0.0000
vn -1.0000 0.0000 -0.0000
vn -0.9706 0.0000 0.2406
vn 0.0000 -1.0000 -0.0000
vn 0.0000 1.0000 -0.0000
vn 0.0000 0.0000 1.0000
vn 0.0000 0.0000 -1.0000
vn -0.9714 0.0000 0.2376
vn -0.9161 0.0000 0.4010
vn 0.0000 1.0000 -0.0002
vn -1.0000 -0.0005 -0.0000
vn -1.0000 0.0000 -0.0004
vn -1.0000 0.0004 -0.0000
vn -1.0000 0.0000 0.0004
vn -0.8915 0.4530 -0.0000
vn -0.9161 0.0000 -0.4010
vn 0.8829 0.4696 -0.0000
vn 0.9096 0.0000 0.4154
vn 0.9113 0.0000 -0.4117
vn 0.5081 -0.8613 -0.0000
vn 0.4190 0.0000 0.9080
vn 0.1864 0.9825 -0.0002
vn 0.4190 0.0000 -0.9080
vn 0.0042 0.0000 -1.0000
vn -0.3788 0.0000 -0.9255
vn -0.9222 0.0000 -0.3866
vn -0.9255 0.0000 0.3788
vn -0.3882 0.0000 0.9216
vn -0.0076 0.0000 1.0000
vn -0.7412 0.0000 -0.6713
# 30 vertex normals

vt 0.6172 0.8150 0.0000
vt 0.6356 0.8316 0.0000
vt 0.3044 0.8316 0.0000
vt 0.3230 0.8150 0.0000
vt 0.3165 0.7571 0.0000
vt 0.3044 0.7418 0.0000
vt 0.6358 0.7418 0.0000
vt 0.6227 0.7571 0.0000
vt 0.6099 0.7820 0.0000
vt 0.6099 0.7965 0.0000
vt 0.3303 0.7965 0.0000
vt 0.3303 0.7820 0.0000
vt 0.2914 0.7293 0.0000
vt 0.2914 0.7082 0.0000
vt 0.6488 0.7082 0.0000
vt 0.6488 0.7293 0.0000
vt 0.9987 0.8801 0.0000
vt 0.3006 0.8801 0.0000
vt 0.3006 0.8470 0.0000
vt 0.9987 0.8470 0.0000
vt 0.3178 0.9485 0.0000
vt 0.3178 0.9339 0.0000
vt 0.9616 0.9339 0.0000
vt 0.9616 0.9485 0.0000
vt 0.9876 0.9846 0.0000
vt 0.3006 0.9846 0.0000
vt 0.3148 0.9660 0.0000
vt 0.9710 0.9660 0.0000
vt 0.3062 0.9059 0.0000
vt 0.3005 0.8940 0.0000
vt 0.9875 0.8940 0.0000
vt 0.9723 0.9059 0.0000
vt 0.2169 0.0386 0.0000
vt 0.2169 0.6819 0.0000
vt 0.2023 0.6819 0.0000
vt 0.2023 0.0386 0.0000
vt 0.3043 0.6990 0.0000
vt 0.2712 0.6990 0.0000
vt 0.2712 0.0015 0.0000
vt 0.3043 0.0015 0.0000
vt 0.1664 0.0127 0.0000
vt 0.1848 0.0292 0.0000
vt 0.1848 0.6849 0.0000
vt 0.1664 0.6990 0.0000
vt 0.2439 0.0279 0.0000
vt 0.2570 0.0127 0.0000
vt 0.2570 0.6990 0.0000
vt 0.2439 0.6935 0.0000
vt 0.9635 0.7649 0.0000
vt 0.9635 0.7794 0.0000
vt 0.6839 0.7794 0.0000
vt 0.6839 0.7648 0.0000
vt 0.9894 0.8098 0.0000
vt 0.6581 0.8098 0.0000
vt 0.6766 0.7956 0.0000
vt 0.9708 0.7956 0.0000
vt 0.9773 0.7390 0.0000
vt 0.6711 0.7390 0.0000
vt 0.6580 0.7334 0.0000
vt 0.9894 0.7334 0.0000
vt 0.6227 0.7713 0.0000
vt 0.3165 0.7713 0.0000
vt 0.9723 0.9201 0.0000
vt 0.3062 0.9201 0.0000
vt 0.6711 0.7532 0.0000
vt 0.9773 0.7532 0.0000
vt 0.2297 0.0279 0.0000
vt 0.2297 0.6935 0.0000
vt 0.6488 0.8442 0.0000
vt 0.2914 0.8442 0.0000
vt 0.9987 0.9989 0.0000
vt 0.3006 0.9989 0.0000
vt 0.1520 0.6990 0.0000
vt 0.1520 0.0015 0.0000
vt 0.0223 0.8618 0.0000
vt 0.0165 0.8595 0.0000
vt 0.0203 0.8517 0.0000
vt 0.0189 0.8618 0.0000
vt 0.0246 0.8561 0.0000
vt 0.0246 0.8594 0.0000
vt 0.0155 0.8829 0.0000
vt 0.0155 0.8618 0.0000
vt 0.0189 0.8829 0.0000
vt 0.0223 0.8829 0.0000
vt 0.0256 0.8618 0.0000
vt 0.0256 0.8829 0.0000
vt 0.0290 0.8618 0.0000
vt 0.0290 0.8829 0.0000
vt 0.0247 0.8853 0.0000
vt 0.0247 0.8886 0.0000
vt 0.0203 0.8930 0.0000
vt 0.0165 0.8853 0.0000
vt 0.0352 0.8618 0.0000
vt 0.0352 0.8829 0.0000
vt 0.0050 0.8601 0.0000
vt 0.0040 0.8829 0.0000
vt 0.0040 0.8618 0.0000
vt 0.0050 0.8847 0.0000
vt 0.0235 0.7983 0.0000
vt 0.0178 0.7960 0.0000
vt 0.0215 0.7882 0.0000
vt 0.0202 0.7984 0.0000
vt 0.0259 0.7926 0.0000
vt 0.0259 0.7959 0.0000
vt 0.0168 0.8194 0.0000
vt 0.0168 0.7984 0.0000
vt 0.0202 0.8194 0.0000
vt 0.0235 0.8194 0.0000
vt 0.0269 0.7983 0.0000
vt 0.0269 0.8194 0.0000
vt 0.0303 0.7983 0.0000
vt 0.0303 0.8194 0.0000
vt 0.0259 0.8218 0.0000
vt 0.0259 0.8251 0.0000
vt 0.0216 0.8295 0.0000
vt 0.0178 0.8218 0.0000
vt 0.0365 0.7983 0.0000
vt 0.0365 0.8194 0.0000
vt 0.0063 0.7967 0.0000
vt 0.0053 0.8194 0.0000
vt 0.0053 0.7984 0.0000
vt 0.0063 0.8212 0.0000
# 122 texture coords

g LP_Doo02_DoorJamb
s 2
f 1/1/1 2/2/1 3/3/1 4/4/1 
f 5/5/2 6/6/3 7/7/2 8/8/2 
s 4
f 9/9/4 10/10/4 11/11/4 12/12/4 
f 13/13/5 14/14/5 15/15/5 16/16/5 
s 1
f 13/17/6 17/18/6 18/19/6 14/20/6 
f 19/21/7 20/22/7 12/23/7 11/24/7 
s 2
f 3/25/1 21/26/1 22/27/1 4/28/1 
f 23/29/2 24/30/8 6/31/3 5/32/2 
f 6/31/3 24/30/8 17/18/9 13/17/9 
s 1
f 9/33/6 25/34/6 26/35/6 10/36/6 
f 27/37/7 28/38/7 16/39/7 15/40/7 
s 2
f 2/41/1 1/42/1 29/43/1 30/44/1 
f 8/45/2 7/46/2 31/47/2 32/48/2 
s off
f 20/49/10 19/50/10 26/51/10 25/52/10 
f 21/53/1 30/54/1 29/55/1 22/56/1 
f 23/57/2 32/58/2 31/59/2 24/60/2 
f 33/61/11 9/9/11 12/12/11 34/62/11 
f 34/63/12 12/23/12 20/22/12 35/64/12 
f 25/52/13 36/65/13 35/66/13 20/49/13 
f 25/34/14 9/33/14 33/67/14 36/68/14 
f 6/6/15 13/13/15 16/16/15 7/7/15 
f 28/38/16 31/47/16 7/46/16 16/39/16 
f 33/61/4 34/62/4 5/5/4 8/8/4 
f 5/32/7 34/63/7 35/64/7 23/29/7 
f 23/57/10 35/66/10 36/65/10 32/58/10 
f 32/48/6 36/68/6 33/67/6 8/45/6 
f 3/3/17 2/2/17 15/69/17 14/70/17 
f 3/25/18 14/71/18 18/72/18 21/26/18 
f 2/41/19 30/44/19 27/73/19 15/74/19 
f 4/4/20 11/11/20 10/10/20 1/1/20 
f 10/36/21 26/35/21 29/43/21 1/42/21 
f 26/51/22 19/50/22 22/56/22 29/55/22 
f 4/28/23 22/27/23 19/21/23 11/24/23 
s 1
f 37/75/4 38/76/4 39/77/4 
f 37/75/4 40/78/4 38/76/4 
f 37/75/4 41/79/4 42/80/4 
f 37/75/4 39/77/4 41/79/4 
s 8
f 43/81/24 38/82/24 40/78/25 
f 40/78/25 44/83/25 43/81/24 
f 44/83/25 40/78/25 37/75/26 
f 37/75/26 45/84/26 44/83/25 
f 45/84/26 37/75/26 42/85/27 
f 42/85/27 46/86/27 45/84/26 
f 46/86/27 42/85/27 41/87/28 
f 41/87/28 47/88/28 46/86/27 
s 1
f 44/83/5 45/84/5 46/89/5 
f 44/83/5 46/89/5 47/90/5 
f 44/83/5 47/90/5 48/91/5 
f 44/83/5 48/91/5 43/92/5 
s 8
f 39/93/29 48/94/29 47/88/28 
f 47/88/28 41/87/28 39/93/29 
s 1
f 39/77/4 38/76/4 49/95/4 
s off
f 43/81/30 50/96/30 49/97/30 
f 49/97/30 38/82/30 43/81/30 
f 43/92/5 48/91/5 50/98/5 
s 1
f 51/99/4 52/100/4 53/101/4 
f 51/99/4 54/102/4 52/100/4 
f 51/99/4 55/103/4 56/104/4 
f 51/99/4 53/101/4 55/103/4 
s 8
f 57/105/24 52/106/24 54/102/25 
f 54/102/25 58/107/25 57/105/24 
f 58/107/25 54/102/25 51/99/26 
f 51/99/26 59/108/26 58/107/25 
f 59/108/26 51/99/26 56/109/27 
f 56/109/27 60/110/27 59/108/26 
f 60/110/27 56/109/27 55/111/28 
f 55/111/28 61/112/28 60/110/27 
s 1
f 58/107/5 59/108/5 60/113/5 
f 58/107/5 60/113/5 61/114/5 
f 58/107/5 61/114/5 62/115/5 
f 58/107/5 62/115/5 57/116/5 
s 8
f 53/117/29 62/118/29 61/112/28 
f 61/112/28 55/111/28 53/117/29 
s 1
f 53/101/4 52/100/4 63/119/4 
s off
f 57/105/30 64/120/30 63/121/30 
f 63/121/30 52/106/30 57/105/30 
f 57/116/5 62/115/5 64/122/5 
# 33 polygons - 44 triangles

