# 3ds Max Wavefront OBJ Exporter v0.97b - (c)2007 guruware
# File Created: 06.06.2017 00:42:57

#
# object LP_Base
#

v  0.9689 2.1423 -0.1152
v  1.0398 2.2149 -0.1152
v  1.0398 -0.0002 -0.1152
v  0.9701 -0.0002 -0.1152
v  1.0398 -0.0002 0.1152
v  1.0398 2.2149 0.1152
v  0.9689 2.1423 -0.0537
v  0.9701 -0.0002 -0.0537
v  0.9427 2.1193 -0.0537
v  0.9444 -0.0002 -0.0537
v  0.9427 2.1193 0.0904
v  0.9444 -0.0002 0.0904
v  0.9672 2.1445 0.1152
v  0.9699 -0.0002 0.1152
v  0.9699 -0.0002 0.0904
v  0.9669 2.1441 0.0904
v  -0.9407 2.1193 -0.0537
v  -0.9407 2.1193 0.0904
v  -0.9669 2.1423 -0.0537
v  -0.9649 2.1441 0.0904
v  -1.0378 2.2149 0.1152
v  -1.0378 2.2149 -0.1152
v  -0.9652 2.1445 0.1152
v  -0.9669 2.1423 -0.1152
v  -0.9680 -0.0002 -0.1152
v  -1.0378 -0.0002 -0.1152
v  -1.0378 -0.0002 0.1152
v  -0.9680 -0.0002 -0.0537
v  -0.9424 -0.0002 -0.0537
v  -0.9424 -0.0002 0.0904
v  -0.9679 -0.0002 0.1152
v  -0.9679 -0.0002 0.0904
# 32 vertices

vn -0.3015 -0.3017 -0.9045
vn 0.5774 0.5774 -0.5774
vn 0.7071 0.0000 -0.7071
vn -0.7070 -0.0004 -0.7072
vn 0.7071 0.0000 0.7071
vn 0.5774 0.5774 0.5774
vn -0.5772 -0.5775 -0.5774
vn -0.7072 -0.0004 -0.7070
vn -0.3015 -0.3018 -0.9044
vn -0.7069 -0.0006 -0.7073
vn -0.3015 -0.3018 0.9044
vn -0.7065 -0.0006 0.7077
vn -0.2960 -0.2982 0.9074
vn -0.7068 -0.0009 0.7074
vn -0.7070 -0.0009 0.7072
vn -0.5749 -0.5721 0.5850
vn 0.3015 -0.3018 -0.9044
vn 0.3015 -0.3018 0.9044
vn 0.5772 -0.5775 -0.5774
vn 0.5749 -0.5721 0.5849
vn -0.5774 0.5774 0.5774
vn -0.5774 0.5774 -0.5774
vn 0.2960 -0.2982 0.9074
vn 0.3015 -0.3017 -0.9045
vn 0.7070 -0.0004 -0.7072
vn -0.7071 0.0000 -0.7071
vn -0.7071 0.0000 0.7071
vn 0.7072 -0.0004 -0.7070
vn 0.7069 -0.0006 -0.7073
vn 0.7065 -0.0006 0.7077
vn 0.7068 -0.0009 0.7074
vn 0.7070 -0.0009 0.7072
# 32 vertex normals

vt 0.0346 0.3554 0.0000
vt 0.0020 0.3235 0.0000
vt 0.9980 0.3235 0.0000
vt 0.9980 0.3549 0.0000
vt 0.9980 0.5136 0.0000
vt 0.9980 0.6173 0.0000
vt 0.0020 0.6173 0.0000
vt 0.0020 0.5136 0.0000
vt 0.0346 0.3831 0.0000
vt 0.9980 0.3826 0.0000
vt 0.0450 0.3947 0.0000
vt 0.9980 0.3943 0.0000
vt 0.0450 0.4591 0.0000
vt 0.9980 0.4594 0.0000
vt 0.0336 0.4810 0.0000
vt 0.9980 0.4822 0.0000
vt 0.9980 0.4711 0.0000
vt 0.0339 0.4698 0.0000
vt 0.0457 0.8193 0.0000
vt 0.8921 0.8193 0.0000
vt 0.8921 0.8841 0.0000
vt 0.0457 0.8841 0.0000
vt 0.9039 0.8090 0.0000
vt 0.0339 0.8090 0.0000
vt 0.9030 0.8953 0.0000
vt 0.0348 0.8953 0.0000
vt 0.0020 0.6451 0.0000
vt 0.9358 0.6451 0.0000
vt 0.9358 0.7487 0.0000
vt 0.0020 0.7487 0.0000
vt 0.9031 0.9064 0.0000
vt 0.9358 0.9381 0.0000
vt 0.0020 0.9381 0.0000
vt 0.0347 0.9064 0.0000
vt 0.9039 0.7813 0.0000
vt 0.0339 0.7813 0.0000
vt 0.0346 0.2639 0.0000
vt 0.9980 0.2644 0.0000
vt 0.9980 0.2957 0.0000
vt 0.0020 0.2957 0.0000
vt 0.0020 0.0020 0.0000
vt 0.9980 0.0020 0.0000
vt 0.9980 0.1056 0.0000
vt 0.0020 0.1056 0.0000
vt 0.0346 0.2362 0.0000
vt 0.9980 0.2367 0.0000
vt 0.0450 0.2246 0.0000
vt 0.9980 0.2250 0.0000
vt 0.0450 0.1602 0.0000
vt 0.9980 0.1598 0.0000
vt 0.0336 0.1383 0.0000
vt 0.9980 0.1370 0.0000
vt 0.9980 0.1482 0.0000
vt 0.0339 0.1495 0.0000
# 54 texture coords

g LP_Base
s 1
f 1/1/1 2/2/2 3/3/3 4/4/4 
f 5/5/5 3/6/3 2/7/2 6/8/6 
f 7/9/7 1/1/1 4/4/4 8/10/8 
f 9/11/9 7/9/7 8/10/8 10/12/10 
f 11/13/11 9/11/9 10/12/10 12/14/12 
f 13/15/13 14/16/14 5/5/5 6/8/6 
f 15/17/15 14/16/14 13/15/13 16/18/16 
f 15/17/15 16/18/16 11/13/11 12/14/12 
f 17/19/17 9/20/9 11/21/11 18/22/18 
f 7/23/7 9/20/9 17/19/17 19/24/19 
f 11/21/11 16/25/16 20/26/20 18/22/18 
f 21/27/21 6/28/6 2/29/2 22/30/22 
f 13/31/13 6/32/6 21/33/21 23/34/23 
f 13/31/13 23/34/23 20/26/20 16/25/16 
f 2/29/2 1/35/1 24/36/24 22/30/22 
f 1/35/1 7/23/7 19/24/19 24/36/24 
f 24/37/24 25/38/25 26/39/26 22/40/22 
f 22/41/22 26/42/26 27/43/27 21/44/21 
f 25/38/25 24/37/24 19/45/19 28/46/28 
f 28/46/28 19/45/19 17/47/17 29/48/29 
f 29/48/29 17/47/17 18/49/18 30/50/30 
f 23/51/23 21/44/21 27/43/27 31/52/31 
f 23/51/23 31/52/31 32/53/32 20/54/20 
f 18/49/18 20/54/20 32/53/32 30/50/30 
# 24 polygons

#
# object Detail
#

v  0.9688 0.3321 -0.1290
v  0.9714 0.3321 -0.1226
v  0.9714 0.2875 -0.1226
v  0.9688 0.2875 -0.1290
v  0.9624 0.3321 -0.1316
v  0.9624 0.2875 -0.1316
v  0.9560 0.3321 -0.1290
v  0.9560 0.2875 -0.1290
v  0.9534 0.3321 -0.1226
v  0.9534 0.2875 -0.1226
v  0.9560 0.3321 -0.1162
v  0.9560 0.2875 -0.1162
v  0.9624 0.3321 -0.1136
v  0.9624 0.2875 -0.1136
v  0.9688 0.3321 -0.1162
v  0.9688 0.2875 -0.1162
v  0.9688 1.7354 -0.1290
v  0.9714 1.7354 -0.1226
v  0.9714 1.6909 -0.1226
v  0.9688 1.6909 -0.1290
v  0.9624 1.7354 -0.1316
v  0.9624 1.6909 -0.1316
v  0.9560 1.7354 -0.1290
v  0.9560 1.6909 -0.1290
v  0.9534 1.7354 -0.1226
v  0.9534 1.6909 -0.1226
v  0.9560 1.7354 -0.1162
v  0.9560 1.6909 -0.1162
v  0.9624 1.7354 -0.1136
v  0.9624 1.6909 -0.1136
v  0.9688 1.7354 -0.1162
v  0.9688 1.6909 -0.1162
v  -0.9581 0.3321 -0.1290
v  -0.9555 0.3321 -0.1226
v  -0.9555 0.2875 -0.1226
v  -0.9581 0.2875 -0.1290
v  -0.9645 0.3321 -0.1316
v  -0.9645 0.2875 -0.1316
v  -0.9709 0.3321 -0.1290
v  -0.9709 0.2875 -0.1290
v  -0.9735 0.3321 -0.1226
v  -0.9735 0.2875 -0.1226
v  -0.9709 0.3321 -0.1162
v  -0.9709 0.2875 -0.1162
v  -0.9645 0.3321 -0.1136
v  -0.9645 0.2875 -0.1136
v  -0.9581 0.3321 -0.1162
v  -0.9581 0.2875 -0.1162
v  -0.9581 1.7354 -0.1290
v  -0.9555 1.7354 -0.1226
v  -0.9555 1.6909 -0.1226
v  -0.9581 1.6909 -0.1290
v  -0.9645 1.7354 -0.1316
v  -0.9645 1.6909 -0.1316
v  -0.9709 1.7354 -0.1290
v  -0.9709 1.6909 -0.1290
v  -0.9735 1.7354 -0.1226
v  -0.9735 1.6909 -0.1226
v  -0.9709 1.7354 -0.1162
v  -0.9709 1.6909 -0.1162
v  -0.9645 1.7354 -0.1136
v  -0.9645 1.6909 -0.1136
v  -0.9581 1.7354 -0.1162
v  -0.9581 1.6909 -0.1162
v  0.9688 1.8235 -0.1290
v  0.9714 1.8235 -0.1226
v  0.9714 1.7790 -0.1226
v  0.9688 1.7790 -0.1290
v  0.9624 1.8235 -0.1316
v  0.9624 1.7790 -0.1316
v  0.9560 1.8235 -0.1290
v  0.9560 1.7790 -0.1290
v  0.9534 1.8235 -0.1226
v  0.9534 1.7790 -0.1226
v  0.9560 1.8235 -0.1162
v  0.9560 1.7790 -0.1162
v  0.9624 1.8235 -0.1136
v  0.9624 1.7790 -0.1136
v  0.9688 1.8235 -0.1162
v  0.9688 1.7790 -0.1162
v  0.9688 0.4197 -0.1290
v  0.9714 0.4197 -0.1226
v  0.9714 0.3751 -0.1226
v  0.9688 0.3751 -0.1290
v  0.9624 0.4197 -0.1316
v  0.9624 0.3751 -0.1316
v  0.9560 0.4197 -0.1290
v  0.9560 0.3751 -0.1290
v  0.9534 0.4197 -0.1226
v  0.9534 0.3751 -0.1226
v  0.9560 0.4197 -0.1162
v  0.9560 0.3751 -0.1162
v  0.9624 0.4197 -0.1136
v  0.9624 0.3751 -0.1136
v  0.9688 0.4197 -0.1162
v  0.9688 0.3751 -0.1162
v  -0.9581 0.4200 -0.1290
v  -0.9555 0.4200 -0.1226
v  -0.9555 0.3754 -0.1226
v  -0.9581 0.3754 -0.1290
v  -0.9645 0.4200 -0.1316
v  -0.9645 0.3754 -0.1316
v  -0.9709 0.4200 -0.1290
v  -0.9709 0.3754 -0.1290
v  -0.9735 0.4200 -0.1226
v  -0.9735 0.3754 -0.1226
v  -0.9709 0.4200 -0.1162
v  -0.9709 0.3754 -0.1162
v  -0.9645 0.4200 -0.1136
v  -0.9645 0.3754 -0.1136
v  -0.9581 0.4200 -0.1162
v  -0.9581 0.3754 -0.1162
v  -0.9581 1.8234 -0.1290
v  -0.9555 1.8234 -0.1226
v  -0.9555 1.7789 -0.1226
v  -0.9581 1.7789 -0.1290
v  -0.9645 1.8234 -0.1316
v  -0.9645 1.7789 -0.1316
v  -0.9709 1.8234 -0.1290
v  -0.9709 1.7789 -0.1290
v  -0.9735 1.8234 -0.1226
v  -0.9735 1.7789 -0.1226
v  -0.9709 1.8234 -0.1162
v  -0.9709 1.7789 -0.1162
v  -0.9645 1.8234 -0.1136
v  -0.9645 1.7789 -0.1136
v  -0.9581 1.8234 -0.1162
v  -0.9581 1.7789 -0.1162
# 128 vertices

vn 0.5496 0.6291 -0.5496
vn 0.7755 0.6314 -0.0000
vn 0.7755 -0.6314 -0.0000
vn 0.5496 -0.6291 -0.5496
vn 0.0000 0.6314 -0.7755
vn -0.0000 -0.6314 -0.7755
vn -0.5496 0.6291 -0.5496
vn -0.5496 -0.6291 -0.5496
vn -0.7755 0.6314 -0.0000
vn -0.7755 -0.6314 -0.0000
vn -0.5496 0.6291 0.5496
vn -0.5496 -0.6291 0.5496
vn 0.0000 0.6314 0.7755
vn 0.0000 -0.6314 0.7755
vn 0.5496 0.6291 0.5496
vn 0.5496 -0.6291 0.5496
vn 0.7755 0.6314 0.0000
vn 0.0000 -0.6314 -0.7755
vn -0.7755 -0.6314 0.0000
vn -0.0000 -0.6314 0.7755
vn -0.0000 0.6314 -0.7755
vn 0.7755 -0.6314 0.0000
vn -0.7755 0.6314 0.0000
# 23 vertex normals

vt 0.9851 0.8975 0.0000
vt 0.9796 0.8975 0.0000
vt 0.9797 0.8620 0.0000
vt 0.9852 0.8620 0.0000
vt 0.9906 0.8975 0.0000
vt 0.9907 0.8620 0.0000
vt 0.9962 0.8975 0.0000
vt 0.9962 0.8620 0.0000
vt 0.9576 0.8974 0.0000
vt 0.9521 0.8974 0.0000
vt 0.9522 0.8619 0.0000
vt 0.9577 0.8620 0.0000
vt 0.9631 0.8975 0.0000
vt 0.9632 0.8620 0.0000
vt 0.9686 0.8975 0.0000
vt 0.9687 0.8620 0.0000
vt 0.9741 0.8975 0.0000
vt 0.9742 0.8620 0.0000
vt 0.4899 0.9917 0.0000
vt 0.4930 0.9846 0.0000
vt 0.4972 0.9846 0.0000
vt 0.5001 0.9876 0.0000
vt 0.5000 0.9918 0.0000
vt 0.4970 0.9947 0.0000
vt 0.4929 0.9947 0.0000
vt 0.4900 0.9875 0.0000
vt 0.4752 0.9786 0.0000
vt 0.4723 0.9715 0.0000
vt 0.4753 0.9685 0.0000
vt 0.4795 0.9686 0.0000
vt 0.4825 0.9715 0.0000
vt 0.4824 0.9757 0.0000
vt 0.4794 0.9787 0.0000
vt 0.4723 0.9756 0.0000
# 34 texture coords

g Detail
s 1
f 33/55/33 34/56/34 35/57/35 36/58/36 
f 37/59/37 33/55/33 36/58/36 38/60/38 
f 39/61/39 37/59/37 38/60/38 40/62/40 
f 41/63/41 39/64/39 40/65/40 42/66/42 
f 43/67/43 41/63/41 42/66/42 44/68/44 
f 45/69/45 43/67/43 44/68/44 46/70/46 
f 47/71/47 45/69/45 46/70/46 48/72/48 
f 34/56/34 47/71/47 48/72/48 35/57/35 
f 35/73/35 46/74/46 44/75/44 42/76/42 
f 42/76/42 40/77/40 38/78/38 35/73/35 
f 38/78/38 36/79/36 35/73/35 
f 48/80/48 46/74/46 35/73/35 
f 47/81/47 33/82/33 37/83/37 39/84/39 
f 39/84/39 41/85/41 43/86/43 47/81/47 
f 43/86/43 45/87/45 47/81/47 
f 34/88/34 33/82/33 47/81/47 
f 49/55/33 50/56/49 51/57/35 52/58/36 
f 53/59/37 49/55/33 52/58/36 54/60/50 
f 55/61/39 53/59/37 54/60/50 56/62/40 
f 57/63/41 55/64/39 56/65/40 58/66/51 
f 59/67/43 57/63/41 58/66/51 60/68/44 
f 61/69/45 59/67/43 60/68/44 62/70/52 
f 63/71/47 61/69/45 62/70/52 64/72/48 
f 50/56/49 63/71/47 64/72/48 51/57/35 
f 51/73/35 62/74/52 60/75/44 58/76/51 
f 58/76/51 56/77/40 54/78/50 51/73/35 
f 54/78/50 52/79/36 51/73/35 
f 64/80/48 62/74/52 51/73/35 
f 63/81/47 49/82/33 53/83/37 55/84/39 
f 55/84/39 57/85/41 59/86/43 63/81/47 
f 59/86/43 61/87/45 63/81/47 
f 50/88/49 49/82/33 63/81/47 
f 65/55/33 66/56/34 67/57/35 68/58/36 
f 69/59/53 65/55/33 68/58/36 70/60/50 
f 71/61/39 69/59/53 70/60/50 72/62/40 
f 73/63/41 71/64/39 72/65/40 74/66/42 
f 75/67/43 73/63/41 74/66/42 76/68/44 
f 77/69/45 75/67/43 76/68/44 78/70/52 
f 79/71/47 77/69/45 78/70/52 80/72/48 
f 66/56/34 79/71/47 80/72/48 67/57/35 
f 67/73/35 78/74/52 76/75/44 74/76/42 
f 74/76/42 72/77/40 70/78/50 67/73/35 
f 70/78/50 68/79/36 67/73/35 
f 80/80/48 78/74/52 67/73/35 
f 79/81/47 65/82/33 69/83/53 71/84/39 
f 71/84/39 73/85/41 75/86/43 79/81/47 
f 75/86/43 77/87/45 79/81/47 
f 66/88/34 65/82/33 79/81/47 
f 81/55/33 82/56/34 83/57/54 84/58/36 
f 85/59/37 81/55/33 84/58/36 86/60/50 
f 87/61/39 85/59/37 86/60/50 88/62/40 
f 89/63/55 87/64/39 88/65/40 90/66/42 
f 91/67/43 89/63/55 90/66/42 92/68/44 
f 93/69/45 91/67/43 92/68/44 94/70/52 
f 95/71/47 93/69/45 94/70/52 96/72/48 
f 82/56/34 95/71/47 96/72/48 83/57/54 
f 83/73/54 94/74/52 92/75/44 90/76/42 
f 90/76/42 88/77/40 86/78/50 83/73/54 
f 86/78/50 84/79/36 83/73/54 
f 96/80/48 94/74/52 83/73/54 
f 95/81/47 81/82/33 85/83/37 87/84/39 
f 87/84/39 89/85/55 91/86/43 95/81/47 
f 91/86/43 93/87/45 95/81/47 
f 82/88/34 81/82/33 95/81/47 
f 97/55/33 98/56/49 99/57/35 100/58/36 
f 101/59/37 97/55/33 100/58/36 102/60/50 
f 103/61/39 101/59/37 102/60/50 104/62/40 
f 105/63/41 103/64/39 104/65/40 106/66/51 
f 107/67/43 105/63/41 106/66/51 108/68/44 
f 109/69/45 107/67/43 108/68/44 110/70/52 
f 111/71/47 109/69/45 110/70/52 112/72/48 
f 98/56/49 111/71/47 112/72/48 99/57/35 
f 99/73/35 110/74/52 108/75/44 106/76/51 
f 106/76/51 104/77/40 102/78/50 99/73/35 
f 102/78/50 100/79/36 99/73/35 
f 112/80/48 110/74/52 99/73/35 
f 111/81/47 97/82/33 101/83/37 103/84/39 
f 103/84/39 105/85/41 107/86/43 111/81/47 
f 107/86/43 109/87/45 111/81/47 
f 98/88/49 97/82/33 111/81/47 
f 113/55/33 114/56/34 115/57/35 116/58/36 
f 117/59/37 113/55/33 116/58/36 118/60/38 
f 119/61/39 117/59/37 118/60/38 120/62/40 
f 121/63/41 119/64/39 120/65/40 122/66/42 
f 123/67/43 121/63/41 122/66/42 124/68/44 
f 125/69/45 123/67/43 124/68/44 126/70/46 
f 127/71/47 125/69/45 126/70/46 128/72/48 
f 114/56/34 127/71/47 128/72/48 115/57/35 
f 115/73/35 126/74/46 124/75/44 122/76/42 
f 122/76/42 120/77/40 118/78/38 115/73/35 
f 118/78/38 116/79/36 115/73/35 
f 128/80/48 126/74/46 115/73/35 
f 127/81/47 113/82/33 117/83/37 119/84/39 
f 119/84/39 121/85/41 123/86/43 127/81/47 
f 123/86/43 125/87/45 127/81/47 
f 114/88/34 113/82/33 127/81/47 
f 129/55/33 130/56/34 131/57/35 132/58/36 
f 133/59/53 129/55/33 132/58/36 134/60/50 
f 135/61/39 133/59/53 134/60/50 136/62/40 
f 137/63/41 135/64/39 136/65/40 138/66/42 
f 139/67/43 137/63/41 138/66/42 140/68/44 
f 141/69/45 139/67/43 140/68/44 142/70/52 
f 143/71/47 141/69/45 142/70/52 144/72/48 
f 130/56/34 143/71/47 144/72/48 131/57/35 
f 131/73/35 142/74/52 140/75/44 138/76/42 
f 138/76/42 136/77/40 134/78/50 131/73/35 
f 134/78/50 132/79/36 131/73/35 
f 144/80/48 142/74/52 131/73/35 
f 143/81/47 129/82/33 133/83/53 135/84/39 
f 135/84/39 137/85/41 139/86/43 143/81/47 
f 139/86/43 141/87/45 143/81/47 
f 130/88/34 129/82/33 143/81/47 
f 145/55/33 146/56/34 147/57/54 148/58/36 
f 149/59/37 145/55/33 148/58/36 150/60/50 
f 151/61/39 149/59/37 150/60/50 152/62/40 
f 153/63/55 151/64/39 152/65/40 154/66/42 
f 155/67/43 153/63/55 154/66/42 156/68/44 
f 157/69/45 155/67/43 156/68/44 158/70/52 
f 159/71/47 157/69/45 158/70/52 160/72/48 
f 146/56/34 159/71/47 160/72/48 147/57/54 
f 147/73/54 158/74/52 156/75/44 154/76/42 
f 154/76/42 152/77/40 150/78/50 147/73/54 
f 150/78/50 148/79/36 147/73/54 
f 160/80/48 158/74/52 147/73/54 
f 159/81/47 145/82/33 149/83/37 151/84/39 
f 151/84/39 153/85/55 155/86/43 159/81/47 
f 155/86/43 157/87/45 159/81/47 
f 146/88/34 145/82/33 159/81/47 
# 96 polygons - 32 triangles

