# 3ds Max Wavefront OBJ Exporter v0.97b - (c)2007 guruware
# File Created: 06.06.2017 00:20:08

#
# object LP_Door_01
#

v  -0.9607 2.1307 0.0090
v  0.0010 2.1307 0.0084
v  0.0010 0.2776 0.0084
v  -0.9607 0.2776 0.0090
v  0.0010 0.2737 0.0017
v  -0.9601 0.2737 0.0017
v  0.0010 0.0233 0.0020
v  -0.9601 0.0233 0.0020
v  0.0010 0.0195 0.0084
v  -0.9607 0.0195 0.0090
v  0.0010 -0.0001 0.0084
v  -0.9607 -0.0001 0.0090
v  0.0010 -0.0001 0.0694
v  -0.9607 -0.0001 0.0688
v  0.0010 2.1307 0.0694
v  0.0010 0.2776 0.0694
v  0.0010 0.0195 0.0694
v  -0.9607 0.2776 0.0688
v  -0.9607 2.1307 0.0688
v  -0.9607 0.0195 0.0688
v  0.0010 0.2737 0.0760
v  -0.9601 0.2737 0.0760
v  0.0010 0.0233 0.0758
v  -0.9601 0.0233 0.0758
v  -0.8823 0.9030 -0.0100
v  -0.8936 0.9774 -0.0205
v  -0.8244 0.9774 -0.0193
v  -0.8356 0.9030 -0.0100
v  -0.8356 0.8956 0.0108
v  -0.8830 0.8956 0.0108
v  -0.8911 0.9780 -0.0374
v  -0.8254 0.9780 -0.0374
v  -0.8944 0.9907 -0.0396
v  -0.8254 0.9907 -0.0396
v  -0.8943 0.9783 0.0104
v  -0.8983 0.9911 -0.0216
v  -0.8984 0.9911 0.0118
v  -0.8248 0.9782 0.0112
v  -0.8823 1.1223 -0.0100
v  -0.8356 1.1223 -0.0100
v  -0.8244 1.0482 -0.0193
v  -0.8936 1.0482 -0.0205
v  -0.8830 1.1296 0.0108
v  -0.8356 1.1296 0.0108
v  -0.8943 1.0482 0.0104
v  -0.8980 1.0358 -0.0223
v  -0.8911 1.0476 -0.0366
v  -0.8944 1.0357 -0.0396
v  -0.8982 1.0354 0.0114
v  -0.8248 1.0483 0.0112
v  -0.7027 0.9780 -0.0374
v  -0.7017 0.9774 -0.0201
v  -0.7027 0.9907 -0.0396
v  -0.7002 1.0482 -0.0201
v  -0.7012 1.0476 -0.0366
v  -0.8254 1.0476 -0.0366
v  -0.7012 1.0357 -0.0396
v  -0.8254 1.0357 -0.0396
v  -0.5786 0.9381 -0.0374
v  -0.5776 0.9375 -0.0201
v  -0.5786 0.9508 -0.0396
v  -0.5776 1.0083 -0.0201
v  -0.5786 1.0077 -0.0366
v  -0.5786 0.9958 -0.0396
v  -0.1581 0.9375 -0.0199
v  -0.1591 0.9381 -0.0374
v  -0.1591 0.9508 -0.0396
v  -0.1591 1.0077 -0.0366
v  -0.1581 1.0083 -0.0199
v  -0.1591 0.9958 -0.0396
v  -0.0887 0.9381 -0.0155
v  -0.0898 0.9375 0.0029
v  -0.0887 0.9508 -0.0178
v  -0.0898 1.0083 0.0029
v  -0.0887 1.0077 -0.0147
v  -0.0887 0.9958 -0.0178
v  -0.0459 0.9381 -0.0155
v  -0.0292 0.9381 0.0005
v  -0.0459 0.9508 -0.0178
v  -0.0297 1.0080 0.0007
v  -0.0459 1.0077 -0.0147
v  -0.0459 0.9958 -0.0178
v  -0.0300 0.9381 0.0107
v  -0.0898 0.9375 0.0108
v  -0.0898 1.0083 0.0108
v  -0.0307 1.0077 0.0107
v  -0.0284 1.0066 0.0008
v  -0.0284 0.9398 0.0008
v  -0.0287 1.0062 0.0107
v  -0.0288 0.9400 0.0107
v  0.0064 0.3695 -0.0064
v  0.0090 0.3695 -0.0000
v  0.0090 0.3262 -0.0000
v  0.0064 0.3262 -0.0064
v  0.0000 0.3695 -0.0090
v  0.0000 0.3262 -0.0090
v  -0.0064 0.3695 -0.0064
v  -0.0064 0.3262 -0.0064
v  -0.0090 0.3695 -0.0000
v  -0.0090 0.3262 -0.0000
v  -0.0064 0.3695 0.0064
v  -0.0064 0.3262 0.0064
v  0.0000 0.3695 0.0090
v  0.0000 0.3262 0.0090
v  0.0064 0.3695 0.0064
v  0.0064 0.3262 0.0064
v  0.0090 1.7296 -0.0000
v  0.0064 1.7296 -0.0064
v  0.0064 1.7729 -0.0064
v  0.0090 1.7729 -0.0000
v  0.0000 1.7296 -0.0090
v  0.0000 1.7729 -0.0090
v  -0.0064 1.7296 -0.0064
v  -0.0064 1.7729 -0.0064
v  -0.0090 1.7296 -0.0000
v  -0.0090 1.7729 -0.0000
v  -0.0064 1.7296 0.0064
v  -0.0064 1.7729 0.0064
v  0.0000 1.7296 0.0090
v  0.0000 1.7729 0.0090
v  0.0064 1.7296 0.0064
v  0.0064 1.7729 0.0064
v  -0.8823 0.9030 0.0917
v  -0.8356 0.9030 0.0917
v  -0.8244 0.9774 0.1010
v  -0.8936 0.9774 0.1021
v  -0.8830 0.8956 0.0708
v  -0.8356 0.8956 0.0709
v  -0.8254 0.9780 0.1191
v  -0.8911 0.9780 0.1190
v  -0.8254 0.9907 0.1213
v  -0.8944 0.9907 0.1213
v  -0.8943 0.9783 0.0713
v  -0.8983 0.9911 0.1033
v  -0.8984 0.9911 0.0699
v  -0.8248 0.9782 0.0704
v  -0.8823 1.1223 0.0917
v  -0.8936 1.0482 0.1021
v  -0.8244 1.0482 0.1010
v  -0.8356 1.1223 0.0917
v  -0.8356 1.1296 0.0709
v  -0.8830 1.1296 0.0708
v  -0.8943 1.0482 0.0713
v  -0.8980 1.0358 0.1040
v  -0.8944 1.0357 0.1213
v  -0.8911 1.0476 0.1182
v  -0.8982 1.0354 0.0703
v  -0.8248 1.0483 0.0704
v  -0.7017 0.9774 0.1017
v  -0.7027 0.9780 0.1191
v  -0.7027 0.9907 0.1213
v  -0.7012 1.0476 0.1183
v  -0.7002 1.0482 0.1017
v  -0.8254 1.0476 0.1183
v  -0.7012 1.0357 0.1213
v  -0.8254 1.0357 0.1213
v  -0.5776 0.9375 0.1017
v  -0.5786 0.9381 0.1191
v  -0.5786 0.9508 0.1213
v  -0.5786 1.0077 0.1183
v  -0.5776 1.0083 0.1017
v  -0.5786 0.9958 0.1213
v  -0.1581 0.9375 0.1015
v  -0.1591 0.9381 0.1191
v  -0.1591 0.9508 0.1213
v  -0.1591 1.0077 0.1183
v  -0.1581 1.0083 0.1015
v  -0.1591 0.9958 0.1213
v  -0.0898 0.9375 0.0787
v  -0.0887 0.9381 0.0972
v  -0.0887 0.9508 0.0994
v  -0.0887 1.0077 0.0964
v  -0.0898 1.0083 0.0787
v  -0.0887 0.9958 0.0994
v  -0.0292 0.9381 0.0812
v  -0.0459 0.9381 0.0972
v  -0.0459 0.9508 0.0994
v  -0.0459 1.0077 0.0964
v  -0.0297 1.0080 0.0809
v  -0.0459 0.9958 0.0994
v  -0.0898 0.9375 0.0709
v  -0.0300 0.9381 0.0710
v  -0.0307 1.0077 0.0710
v  -0.0898 1.0083 0.0709
v  -0.0284 0.9398 0.0808
v  -0.0284 1.0066 0.0809
v  -0.0288 0.9400 0.0710
v  -0.0287 1.0062 0.0710
# 188 vertices

vn -0.5775 0.5774 -0.5771
vn 0.5772 0.5773 -0.5776
vn 0.8384 0.2724 -0.4720
vn -0.8422 0.2627 -0.4708
vn 0.6100 0.3956 -0.6866
vn -0.5739 0.4098 -0.7090
vn 0.6106 -0.3938 -0.6872
vn -0.5731 -0.4086 -0.7104
vn 0.8375 -0.2715 -0.4743
vn -0.8415 -0.2617 -0.4727
vn 0.5772 -0.5773 -0.5776
vn -0.5775 -0.5774 -0.5771
vn 0.5772 -0.5773 0.5776
vn -0.5775 -0.5774 0.5771
vn 0.5772 0.5773 0.5776
vn 0.8384 0.2724 0.4720
vn 0.8375 -0.2715 0.4743
vn -0.8422 0.2627 0.4708
vn -0.5775 0.5774 0.5771
vn -0.8415 -0.2617 0.4727
vn 0.6100 0.3956 0.6866
vn -0.5739 0.4098 0.7090
vn 0.6106 -0.3938 0.6872
vn -0.5731 -0.4086 0.7104
vn -0.5413 -0.5461 -0.6394
vn -0.7929 -0.5228 -0.3129
vn 0.6535 -0.7565 0.0232
vn 0.5554 -0.5426 -0.6301
vn 0.5758 -0.7705 -0.2736
vn -0.5757 -0.7640 -0.2914
vn -0.4366 -0.6873 -0.5805
vn -0.0001 -0.7558 -0.6548
vn -0.6332 -0.1384 -0.7615
vn -0.0002 -0.0869 -0.9962
vn -0.9721 -0.2339 -0.0153
vn -0.9826 -0.1555 -0.1016
vn -0.9892 -0.1467 -0.0014
vn 0.9974 -0.0708 0.0102
vn -0.5406 0.5467 -0.6394
vn 0.5547 0.5433 -0.6302
vn 0.6537 0.7564 0.0211
vn -0.7899 0.5275 -0.3127
vn -0.5750 0.7644 -0.2915
vn 0.5752 0.7708 -0.2737
vn -0.9740 0.2253 -0.0258
vn -0.9799 0.1714 -0.1023
vn -0.4300 0.7115 -0.5557
vn -0.6272 0.1660 -0.7610
vn -0.9884 0.1515 -0.0097
vn 0.9973 0.0727 0.0085
vn -0.1117 -0.7213 -0.6835
vn -0.1068 -0.6690 0.7356
vn -0.0112 -0.0783 -0.9969
vn 0.1241 0.7439 0.6566
vn 0.1198 0.7900 -0.6013
vn -0.0001 0.7798 -0.6261
vn 0.0242 0.1370 -0.9903
vn -0.0002 0.1248 -0.9922
vn -0.1240 -0.7734 -0.6217
vn -0.1115 -0.7384 0.6651
vn -0.0167 -0.0953 -0.9953
vn 0.1034 0.6758 0.7298
vn 0.1238 0.7416 -0.6594
vn 0.0163 0.1124 -0.9935
vn -0.1046 -0.7569 0.6451
vn 0.1045 -0.7258 -0.6800
vn 0.1482 -0.0852 -0.9853
vn 0.1010 0.7510 -0.6525
vn -0.1044 0.7575 0.6444
vn 0.1472 0.1221 -0.9815
vn 0.0917 -0.7862 -0.6112
vn -0.4041 -0.8706 0.2805
vn 0.1506 -0.0866 -0.9848
vn -0.4045 0.8707 0.2798
vn 0.0869 0.8078 -0.5830
vn 0.1505 0.1249 -0.9807
vn 0.2817 -0.6871 -0.6698
vn 0.6047 -0.7326 -0.3124
vn 0.3805 -0.0712 -0.9220
vn 0.4585 0.8567 -0.2362
vn 0.2652 0.7114 -0.6508
vn 0.3733 0.1024 -0.9221
vn 0.4575 -0.8885 0.0358
vn -0.7041 -0.7101 -0.0000
vn -0.7040 0.7102 -0.0000
vn 0.3064 0.9505 0.0527
vn 0.8842 0.3372 -0.3232
vn 0.9274 -0.1809 -0.3274
vn 0.9023 0.4275 0.0558
vn 0.9589 -0.2793 0.0499
vn 0.5490 0.6303 -0.5490
vn 0.7764 0.6303 -0.0000
vn 0.7764 -0.6303 -0.0000
vn 0.5490 -0.6303 -0.5490
vn 0.0000 0.6303 -0.7764
vn 0.0000 -0.6303 -0.7764
vn -0.5490 0.6303 -0.5490
vn -0.5490 -0.6303 -0.5490
vn -0.7764 0.6303 -0.0000
vn -0.7764 -0.6303 -0.0000
vn -0.5490 0.6303 0.5490
vn -0.5490 -0.6303 0.5490
vn 0.0000 0.6303 0.7764
vn 0.0000 -0.6303 0.7764
vn 0.5490 0.6303 0.5490
vn 0.5490 -0.6303 0.5490
vn -0.5413 -0.5461 0.6394
vn 0.5554 -0.5426 0.6301
vn 0.6535 -0.7565 -0.0232
vn -0.7929 -0.5228 0.3129
vn -0.5757 -0.7640 0.2914
vn 0.5758 -0.7705 0.2736
vn -0.0001 -0.7558 0.6548
vn -0.4366 -0.6873 0.5805
vn -0.0002 -0.0869 0.9962
vn -0.6332 -0.1384 0.7615
vn -0.9721 -0.2339 0.0153
vn -0.9826 -0.1555 0.1016
vn -0.9892 -0.1467 0.0014
vn 0.9974 -0.0708 -0.0102
vn -0.5406 0.5467 0.6394
vn -0.7899 0.5275 0.3127
vn 0.6537 0.7564 -0.0211
vn 0.5547 0.5433 0.6302
vn 0.5752 0.7708 0.2737
vn -0.5750 0.7644 0.2915
vn -0.9740 0.2253 0.0258
vn -0.9799 0.1714 0.1023
vn -0.6272 0.1660 0.7610
vn -0.4300 0.7115 0.5557
vn -0.9884 0.1515 0.0097
vn 0.9973 0.0727 -0.0085
vn -0.1068 -0.6690 -0.7356
vn -0.1117 -0.7213 0.6835
vn -0.0112 -0.0783 0.9969
vn 0.1198 0.7900 0.6013
vn 0.1241 0.7439 -0.6566
vn -0.0001 0.7798 0.6261
vn 0.0242 0.1370 0.9903
vn -0.0002 0.1248 0.9922
vn -0.1115 -0.7384 -0.6651
vn -0.1240 -0.7734 0.6217
vn -0.0167 -0.0953 0.9953
vn 0.1238 0.7416 0.6594
vn 0.1034 0.6758 -0.7298
vn 0.0163 0.1124 0.9935
vn -0.1046 -0.7569 -0.6451
vn 0.1045 -0.7258 0.6800
vn 0.1482 -0.0852 0.9853
vn 0.1010 0.7510 0.6525
vn -0.1044 0.7575 -0.6444
vn 0.1472 0.1221 0.9815
vn -0.4041 -0.8706 -0.2805
vn 0.0917 -0.7862 0.6112
vn 0.1506 -0.0866 0.9848
vn 0.0869 0.8078 0.5830
vn -0.4045 0.8707 -0.2798
vn 0.1505 0.1249 0.9807
vn 0.6047 -0.7326 0.3124
vn 0.2817 -0.6871 0.6698
vn 0.3805 -0.0712 0.9220
vn 0.2652 0.7114 0.6508
vn 0.4585 0.8567 0.2362
vn 0.3733 0.1024 0.9221
vn 0.4575 -0.8885 -0.0358
vn 0.3064 0.9505 -0.0527
vn 0.9274 -0.1809 0.3274
vn 0.8842 0.3372 0.3232
vn 0.9589 -0.2793 -0.0499
vn 0.9023 0.4275 -0.0558
# 170 vertex normals

vt 0.9506 0.0056 0.0000
vt 0.9503 0.4278 0.0000
vt 0.1369 0.4272 0.0000
vt 0.1372 0.0051 0.0000
vt 0.1336 0.4272 0.0000
vt 0.1336 0.0054 0.0000
vt 0.0236 0.4273 0.0000
vt 0.0236 0.0054 0.0000
vt 0.0204 0.4273 0.0000
vt 0.0201 0.0051 0.0000
vt 0.0117 0.4273 0.0000
vt 0.0115 0.0051 0.0000
vt 0.9475 0.8574 0.0000
vt 0.9475 0.4352 0.0000
vt 0.9738 0.4352 0.0000
vt 0.9743 0.8574 0.0000
vt 0.1328 0.8979 0.0000
vt 0.0195 0.8979 0.0000
vt 0.0212 0.8951 0.0000
vt 0.1311 0.8950 0.0000
vt 0.9462 0.9247 0.0000
vt 0.1328 0.9247 0.0000
vt 0.9462 0.8979 0.0000
vt 0.0109 0.9247 0.0000
vt 0.0109 0.8979 0.0000
vt 0.0195 0.9247 0.0000
vt 0.8260 0.8598 0.0000
vt 0.9360 0.8599 0.0000
vt 0.9376 0.8630 0.0000
vt 0.8243 0.8630 0.0000
vt 0.8243 0.8892 0.0000
vt 0.0109 0.8892 0.0000
vt 0.0109 0.8630 0.0000
vt 0.9462 0.8630 0.0000
vt 0.9462 0.8892 0.0000
vt 0.9376 0.8892 0.0000
vt 0.9768 0.0056 0.0000
vt 0.9771 0.4278 0.0000
vt 0.0087 0.4352 0.0000
vt 0.8221 0.4352 0.0000
vt 0.8222 0.8574 0.0000
vt 0.0087 0.8574 0.0000
vt 0.8256 0.8574 0.0000
vt 0.8256 0.4355 0.0000
vt 0.9356 0.8574 0.0000
vt 0.9355 0.4355 0.0000
vt 0.9389 0.8574 0.0000
vt 0.9389 0.4352 0.0000
vt 0.1311 0.9276 0.0000
vt 0.0212 0.9275 0.0000
vt 0.8260 0.8924 0.0000
vt 0.9360 0.8923 0.0000
vt 0.9230 0.9518 0.0000
vt 0.8843 0.9458 0.0000
vt 0.8840 0.9810 0.0000
vt 0.9226 0.9763 0.0000
vt 0.9341 0.9763 0.0000
vt 0.9344 0.9517 0.0000
vt 0.0049 0.9469 0.0000
vt 0.0390 0.9483 0.0000
vt 0.0398 0.9389 0.0000
vt 0.0039 0.9381 0.0000
vt 0.0029 0.9536 0.0000
vt 0.0388 0.9550 0.0000
vt 0.9293 0.9421 0.0000
vt 0.8869 0.9303 0.0000
vt 0.8775 0.9460 0.0000
vt 0.8764 0.9553 0.0000
vt 0.8832 0.9543 0.0000
vt 0.8785 0.9286 0.0000
vt 0.8856 0.9965 0.0000
vt 0.9286 0.9864 0.0000
vt 0.8104 0.9522 0.0000
vt 0.8109 0.9767 0.0000
vt 0.8493 0.9812 0.0000
vt 0.8488 0.9459 0.0000
vt 0.7989 0.9522 0.0000
vt 0.7994 0.9768 0.0000
vt 0.8457 0.9305 0.0000
vt 0.8039 0.9425 0.0000
vt 0.8549 0.9464 0.0000
vt 0.8499 0.9544 0.0000
vt 0.8563 0.9558 0.0000
vt 0.8540 0.9290 0.0000
vt 0.8050 0.9868 0.0000
vt 0.8474 0.9966 0.0000
vt 0.1031 0.9506 0.0000
vt 0.1029 0.9415 0.0000
vt 0.1027 0.9575 0.0000
vt 0.0379 0.9937 0.0000
vt 0.1030 0.9954 0.0000
vt 0.1018 0.9871 0.0000
vt 0.0376 0.9847 0.0000
vt 0.1021 0.9808 0.0000
vt 0.0378 0.9783 0.0000
vt 0.1692 0.9359 0.0000
vt 0.1691 0.9271 0.0000
vt 0.1686 0.9425 0.0000
vt 0.1684 0.9806 0.0000
vt 0.1671 0.9721 0.0000
vt 0.1673 0.9656 0.0000
vt 0.3882 0.9359 0.0000
vt 0.3863 0.9446 0.0000
vt 0.3861 0.9510 0.0000
vt 0.3851 0.9803 0.0000
vt 0.3864 0.9886 0.0000
vt 0.3852 0.9741 0.0000
vt 0.4246 0.9444 0.0000
vt 0.4258 0.9347 0.0000
vt 0.4243 0.9516 0.0000
vt 0.4239 0.9916 0.0000
vt 0.4234 0.9823 0.0000
vt 0.4234 0.9754 0.0000
vt 0.4471 0.9462 0.0000
vt 0.4567 0.9389 0.0000
vt 0.4464 0.9527 0.0000
vt 0.4548 0.9896 0.0000
vt 0.4460 0.9820 0.0000
vt 0.4455 0.9758 0.0000
vt 0.4569 0.9336 0.0000
vt 0.4260 0.9306 0.0000
vt 0.4238 0.9957 0.0000
vt 0.4546 0.9948 0.0000
vt 0.4583 0.9821 0.0000
vt 0.4597 0.9474 0.0000
vt 0.4579 0.9829 0.0000
vt 0.4594 0.9464 0.0000
vt 0.4633 0.9821 0.0000
vt 0.4648 0.9477 0.0000
vt 0.4632 0.9835 0.0000
vt 0.4648 0.9465 0.0000
vt 0.7932 0.9704 0.0000
vt 0.7966 0.9703 0.0000
vt 0.7955 0.9392 0.0000
vt 0.7921 0.9394 0.0000
vt 0.7616 0.9715 0.0000
vt 0.7605 0.9405 0.0000
vt 0.5776 0.9781 0.0000
vt 0.5765 0.9471 0.0000
vt 0.5221 0.9315 0.0000
vt 0.5225 0.9626 0.0000
vt 0.4676 0.9335 0.0000
vt 0.4687 0.9645 0.0000
vt 0.0020 0.9769 0.0000
vt 0.0035 0.9834 0.0000
vt 0.0019 0.9917 0.0000
vt 0.9947 0.9962 0.0000
vt 0.9892 0.9962 0.0000
vt 0.9891 0.9616 0.0000
vt 0.9947 0.9616 0.0000
vt 0.9562 0.9962 0.0000
vt 0.9507 0.9963 0.0000
vt 0.9506 0.9617 0.0000
vt 0.9561 0.9617 0.0000
vt 0.9617 0.9962 0.0000
vt 0.9616 0.9617 0.0000
vt 0.9672 0.9962 0.0000
vt 0.9671 0.9617 0.0000
vt 0.9727 0.9962 0.0000
vt 0.9726 0.9617 0.0000
vt 0.9782 0.9962 0.0000
vt 0.9781 0.9617 0.0000
vt 0.9837 0.9962 0.0000
vt 0.9836 0.9617 0.0000
vt 0.5346 0.9788 0.0000
vt 0.5417 0.9819 0.0000
vt 0.5417 0.9861 0.0000
vt 0.5387 0.9890 0.0000
vt 0.5345 0.9890 0.0000
vt 0.5315 0.9860 0.0000
vt 0.5316 0.9818 0.0000
vt 0.5388 0.9789 0.0000
vt 0.4999 0.9757 0.0000
vt 0.4927 0.9786 0.0000
vt 0.4897 0.9756 0.0000
vt 0.4898 0.9715 0.0000
vt 0.4928 0.9685 0.0000
vt 0.4970 0.9686 0.0000
vt 0.4999 0.9715 0.0000
vt 0.4969 0.9787 0.0000
# 180 texture coords

g LP_Door_01
s 1
f 1/1/1 2/2/2 3/3/3 4/4/4 
f 5/5/5 6/6/6 4/4/4 3/3/3 
f 7/7/7 8/8/8 6/6/6 5/5/5 
f 9/9/9 10/10/10 8/8/8 7/7/7 
f 11/11/11 12/12/12 10/10/10 9/9/9 
f 13/13/13 14/14/14 12/15/12 11/16/11 
f 3/17/3 9/18/9 7/19/7 5/20/5 
f 15/21/15 16/22/16 3/17/3 2/23/2 
f 13/24/13 11/25/11 9/18/9 17/26/17 
f 6/27/6 8/28/8 10/29/10 4/30/4 
f 18/31/18 19/32/19 1/33/1 4/30/4 
f 10/29/10 12/34/12 14/35/14 
f 20/36/20 18/31/18 4/30/4 10/29/10 
f 2/2/2 1/1/1 19/37/19 15/38/15 
f 19/39/19 18/40/18 16/41/16 15/42/15 
f 21/43/21 16/41/16 18/40/18 22/44/22 
f 23/45/23 21/43/21 22/44/22 24/46/24 
f 17/47/17 23/45/23 24/46/24 20/48/20 
f 13/13/13 17/47/17 20/48/20 14/14/14 
f 16/22/16 21/49/21 23/50/23 17/26/17 
f 22/51/22 18/31/18 20/36/20 24/52/24 
f 16/22/16 17/26/17 9/18/9 3/17/3 
f 10/29/10 14/35/14 20/36/20 
f 25/53/25 26/54/26 27/55/27 28/56/28 
f 29/57/29 30/58/30 25/53/25 28/56/28 
f 31/59/31 32/60/32 27/61/27 26/62/26 
f 31/59/31 33/63/33 34/64/34 32/60/32 
f 25/53/25 30/65/30 35/66/35 26/54/26 
f 36/67/36 33/68/33 31/69/31 
f 35/66/35 37/70/37 36/67/36 26/54/26 
f 36/67/36 31/69/31 26/54/26 
f 28/56/28 27/55/27 38/71/38 29/72/29 
f 39/73/39 40/74/40 41/75/41 42/76/42 
f 39/73/39 43/77/43 44/78/44 40/74/40 
f 39/73/39 42/76/42 45/79/45 43/80/43 
f 46/81/46 47/82/47 48/83/48 
f 42/76/42 46/81/46 49/84/49 45/79/45 
f 48/83/48 33/68/33 36/67/36 46/81/46 
f 36/67/36 37/70/37 49/84/49 46/81/46 
f 46/81/46 42/76/42 47/82/47 
f 40/74/40 44/85/44 50/86/50 41/75/41 
f 41/75/41 50/86/50 38/71/38 27/55/27 
f 51/87/51 52/88/52 27/61/27 32/60/32 
f 51/87/51 32/60/32 34/64/34 53/89/53 
f 41/90/41 54/91/54 55/92/55 56/93/56 
f 57/94/57 58/95/58 56/93/56 55/92/55 
f 58/95/58 57/94/57 53/89/53 34/64/34 
f 59/96/59 60/97/60 52/88/52 51/87/51 
f 61/98/61 59/96/59 51/87/51 53/89/53 
f 54/91/54 62/99/62 63/100/63 55/92/55 
f 63/100/63 64/101/64 57/94/57 55/92/55 
f 64/101/64 61/98/61 53/89/53 57/94/57 
f 65/102/65 60/97/60 59/96/59 66/103/66 
f 66/103/66 59/96/59 61/98/61 67/104/67 
f 68/105/68 63/100/63 62/99/62 69/106/69 
f 70/107/70 64/101/64 63/100/63 68/105/68 
f 67/104/67 61/98/61 64/101/64 70/107/70 
f 71/108/71 72/109/72 65/102/65 66/103/66 
f 73/110/73 71/108/71 66/103/66 67/104/67 
f 69/106/69 74/111/74 75/112/75 68/105/68 
f 68/105/68 75/112/75 76/113/76 70/107/70 
f 73/110/73 67/104/67 70/107/70 76/113/76 
f 77/114/77 78/115/78 72/109/72 71/108/71 
f 77/114/77 71/108/71 73/110/73 79/116/79 
f 74/111/74 80/117/80 81/118/81 75/112/75 
f 82/119/82 76/113/76 75/112/75 81/118/81 
f 79/116/79 73/110/73 76/113/76 82/119/82 
f 83/120/83 84/121/84 72/109/72 78/115/78 
f 74/111/74 85/122/85 86/123/86 80/117/80 
f 79/116/79 82/119/82 87/124/87 88/125/88 
f 81/118/81 80/126/80 87/124/87 82/119/82 
f 88/125/88 78/127/78 77/114/77 79/116/79 
f 87/124/87 89/128/89 90/129/90 88/125/88 
f 86/130/86 89/128/89 80/126/80 
f 90/129/90 83/131/83 78/127/78 
f 72/132/72 84/133/84 85/134/85 74/135/74 
f 65/136/65 72/132/72 74/135/74 69/137/69 
f 60/138/60 65/136/65 69/137/69 62/139/62 
f 62/139/62 54/140/54 52/141/52 60/138/60 
f 41/142/41 27/143/27 52/141/52 54/140/54 
f 58/95/58 34/64/34 33/63/33 48/144/48 
f 47/145/47 56/93/56 58/95/58 48/144/48 
f 47/145/47 42/146/42 41/90/41 56/93/56 
f 80/126/80 89/128/89 87/124/87 
f 90/129/90 78/127/78 88/125/88 
f 91/147/91 92/148/92 93/149/93 94/150/94 
f 95/151/95 91/152/91 94/153/94 96/154/96 
f 97/155/97 95/151/95 96/154/96 98/156/98 
f 99/157/99 97/155/97 98/156/98 100/158/100 
f 101/159/101 99/157/99 100/158/100 102/160/102 
f 103/161/103 101/159/101 102/160/102 104/162/104 
f 105/163/105 103/161/103 104/162/104 106/164/106 
f 92/148/92 105/163/105 106/164/106 93/149/93 
f 93/165/93 104/166/104 102/167/102 100/168/100 
f 100/168/100 98/169/98 96/170/96 93/165/93 
f 96/170/96 94/171/94 93/165/93 
f 106/172/106 104/166/104 93/165/93 
f 105/173/105 91/174/91 95/175/95 97/176/97 
f 97/176/97 99/177/99 101/178/101 105/173/105 
f 101/178/101 103/179/103 105/173/105 
f 92/180/92 91/174/91 105/173/105 
f 107/149/93 108/150/94 109/147/91 
f 109/147/91 110/148/92 107/149/93 
f 108/153/94 111/154/96 112/151/95 
f 112/151/95 109/152/91 108/153/94 
f 111/154/96 113/156/98 114/155/97 
f 114/155/97 112/151/95 111/154/96 
f 113/156/98 115/158/100 116/157/99 
f 116/157/99 114/155/97 113/156/98 
f 115/158/100 117/160/102 118/159/101 
f 118/159/101 116/157/99 115/158/100 
f 117/160/102 119/162/104 120/161/103 
f 120/161/103 118/159/101 117/160/102 
f 119/162/104 121/164/106 122/163/105 
f 122/163/105 120/161/103 119/162/104 
f 121/164/106 107/149/93 110/148/92 
f 110/148/92 122/163/105 121/164/106 
f 117/167/102 115/168/100 107/165/93 
f 107/165/93 119/166/104 117/167/102 
f 111/170/96 107/165/93 115/168/100 
f 115/168/100 113/169/98 111/170/96 
f 111/170/96 108/171/94 107/165/93 
f 121/172/106 119/166/104 107/165/93 
f 122/173/105 109/174/91 112/175/95 114/176/97 
f 114/176/97 116/177/99 118/178/101 122/173/105 
f 118/178/101 120/179/103 122/173/105 
f 110/180/92 109/174/91 122/173/105 
f 123/53/107 124/56/108 125/55/109 126/54/110 
f 123/53/107 127/58/111 128/57/112 124/56/108 
f 125/61/109 129/60/113 130/59/114 126/62/110 
f 131/64/115 132/63/116 130/59/114 129/60/113 
f 133/66/117 127/65/111 123/53/107 126/54/110 
f 134/67/118 130/69/114 132/68/116 
f 134/67/118 135/70/119 133/66/117 126/54/110 
f 134/67/118 126/54/110 130/69/114 
f 136/71/120 125/55/109 124/56/108 128/72/112 
f 137/73/121 138/76/122 139/75/123 140/74/124 
f 141/78/125 142/77/126 137/73/121 140/74/124 
f 143/79/127 138/76/122 137/73/121 142/80/126 
f 144/81/128 145/83/129 146/82/130 
f 147/84/131 144/81/128 138/76/122 143/79/127 
f 145/83/129 144/81/128 134/67/118 132/68/116 
f 147/84/131 135/70/119 134/67/118 144/81/128 
f 144/81/128 146/82/130 138/76/122 
f 148/86/132 141/85/125 140/74/124 139/75/123 
f 136/71/120 148/86/132 139/75/123 125/55/109 
f 125/61/109 149/88/133 150/87/134 129/60/113 
f 150/87/134 151/89/135 131/64/115 129/60/113 
f 152/92/136 153/91/137 139/90/123 154/93/138 
f 155/94/139 152/92/136 154/93/138 156/95/140 
f 151/89/135 155/94/139 156/95/140 131/64/115 
f 149/88/133 157/97/141 158/96/142 150/87/134 
f 150/87/134 158/96/142 159/98/143 151/89/135 
f 160/100/144 161/99/145 153/91/137 152/92/136 
f 155/94/139 162/101/146 160/100/144 152/92/136 
f 151/89/135 159/98/143 162/101/146 155/94/139 
f 163/102/147 164/103/148 158/96/142 157/97/141 
f 164/103/148 165/104/149 159/98/143 158/96/142 
f 166/105/150 167/106/151 161/99/145 160/100/144 
f 168/107/152 166/105/150 160/100/144 162/101/146 
f 165/104/149 168/107/152 162/101/146 159/98/143 
f 163/102/147 169/109/153 170/108/154 164/103/148 
f 164/103/148 170/108/154 171/110/155 165/104/149 
f 172/112/156 173/111/157 167/106/151 166/105/150 
f 174/113/158 172/112/156 166/105/150 168/107/152 
f 171/110/155 174/113/158 168/107/152 165/104/149 
f 169/109/153 175/115/159 176/114/160 170/108/154 
f 176/114/160 177/116/161 171/110/155 170/108/154 
f 178/118/162 179/117/163 173/111/157 172/112/156 
f 180/119/164 178/118/162 172/112/156 174/113/158 
f 177/116/161 180/119/164 174/113/158 171/110/155 
f 169/109/153 181/121/84 182/120/165 175/115/159 
f 183/123/166 184/122/85 173/111/157 179/117/163 
f 177/116/161 185/125/167 186/124/168 180/119/164 
f 180/119/164 186/124/168 179/126/163 178/118/162 
f 176/114/160 175/127/159 185/125/167 177/116/161 
f 186/124/168 185/125/167 187/129/169 188/128/170 
f 183/130/166 179/126/163 188/128/170 
f 187/129/169 175/127/159 182/131/165 
f 169/132/153 173/135/157 184/134/85 181/133/84 
f 163/136/147 167/137/151 173/135/157 169/132/153 
f 157/138/141 161/139/145 167/137/151 163/136/147 
f 149/141/133 153/140/137 161/139/145 157/138/141 
f 149/141/133 125/143/109 139/142/123 153/140/137 
f 156/95/140 145/144/129 132/63/116 131/64/115 
f 156/95/140 154/93/138 146/145/130 145/144/129 
f 139/90/123 138/146/122 146/145/130 154/93/138 
f 179/126/163 186/124/168 188/128/170 
f 187/129/169 185/125/167 175/127/159 
# 143 polygons - 46 triangles

